<svg xmlns="http://www.w3.org/2000/svg" width="357" height="42" fill="none" viewBox="0 0 357 42"><path stroke="url(#a)" stroke-linecap="round" d="M1 21h35"/><path stroke="url(#b)" stroke-linecap="round" d="M321 21h35"/><path fill="url(#c)" d="M57.125 13.188h5.04v4.687h9.843v4.453h-9.844v6.797c.234 3.36-1.289 5-4.57 4.922a47.097 47.097 0 0 1-4.688.234c-.156-.703-.43-1.836-.82-3.398-.078-.625-.156-1.055-.234-1.29h3.75c1.093.079 1.601-.507 1.523-1.757v-5.508H46.109l1.524-14.414c7.422 0 14.687-.351 21.797-1.055l1.523 4.454c-5.312.39-11.562.742-18.75 1.054l-.586 5.508h5.508v-4.688Zm-6.563 9.257 4.102 2.461c-2.266 3.438-4.336 6.172-6.21 8.203a25.554 25.554 0 0 0-3.868-2.812c2.11-2.266 4.102-4.883 5.977-7.852Zm16.29.352c1.25 1.406 3.085 3.594 5.507 6.562.391.391.664.703.82.938l-4.1 2.695a505.898 505.898 0 0 1-2.696-3.515c-1.406-1.954-2.461-3.36-3.164-4.22l3.633-2.46Zm10.664-.82h8.906v-2.11h-9.61v-4.219h24.376v4.22h-9.844v2.109h9.14v4.218h-2.812a26.986 26.986 0 0 1 1.992 2.227l-1.406.937h4.687v3.985h-27.89v-3.985h11.367v-3.164h-8.906v-4.218ZM75.64 15.18V9.086h10.78c-.155-.625-.429-1.524-.82-2.695l5.86-.235c.234.86.469 1.836.703 2.93h10.195v6.094h-4.804v-1.875h-17.11v1.875H75.64Zm17.343 11.953 1.641-.938h-3.281v3.164h3.515a40.775 40.775 0 0 0-1.875-2.226Zm14.414-16.524-.586-3.046c5.86-.079 13.75-.274 23.672-.586l.469 3.164c-3.203.156-6.406.234-9.609.234v1.055h11.718v3.047h-11.718v1.054h9.258v10.196h-9.258v1.054h9.961v2.696h-9.961v1.054h11.836v2.813h-28.36V30.53h11.836v-1.054h-9.961V26.78h9.961v-1.054h-9.258V15.53h9.258v-1.054h-11.718V11.43h11.718v-.938c-1.25.078-2.578.117-3.984.117h-5.274Zm18.75 7.5h-4.804v1.172h4.804V18.11Zm0 5.04v-1.29h-4.804v1.29h4.804Zm-14.179-1.29v1.29h4.687v-1.29h-4.687Zm0-3.75v1.172h4.687V18.11h-4.687Zm22.383 12.54c.703-1.407 1.523-3.32 2.46-5.743l3.399 1.172a52.708 52.708 0 0 1-1.758 4.219h1.055c.859.078 1.25-.313 1.172-1.172v-4.57h-5.274v-3.75h5.274v-1.407h-5.742v-3.75h3.046a93.46 93.46 0 0 1-1.757-2.343l1.992-.938h-2.696V8.734h4.571c-.156-.468-.274-1.054-.352-1.757-.078-.157-.117-.274-.117-.352l4.922-.352c.234.704.391 1.524.469 2.461h4.453v3.633h-2.93l2.344.82c-.156.235-.43.626-.821 1.172-.312.547-.585.977-.82 1.29h2.696v3.75h-4.922v1.406h4.57v3.75h-4.57v5.742c.078 2.344-1.094 3.594-3.516 3.75h-1.172c-.703.078-1.289.117-1.758.117-.078-.312-.195-.86-.351-1.64a12.818 12.818 0 0 0-.235-1.407c0 .078-.078.235-.234.469a1.362 1.362 0 0 1-.234.352l-3.164-1.29Zm27.304-23.555 1.406 4.101c-1.015.157-2.578.352-4.687.586a699.15 699.15 0 0 1-3.398.352v3.633h8.203v4.218h-2.227v13.828h-4.219V19.985h-1.757c0 3.516-.196 6.25-.586 8.203-.391 1.954-1.133 4.063-2.227 6.329-1.25-.86-2.539-1.72-3.867-2.578.547-1.016.898-1.797 1.055-2.344l-2.227 1.054c-.547-1.406-1.25-2.89-2.109-4.453l3.281-1.406a53.861 53.861 0 0 0 1.641 3.047c.39-1.719.585-4.492.585-8.32V8.266c4.297-.235 8.008-.625 11.133-1.172Zm-19.57 7.617-1.758.937h2.578a82.018 82.018 0 0 0 1.875-3.28h-4.57a24.66 24.66 0 0 0 1.875 2.343Zm48.75 7.851v4.102h-9.024v2.93h11.485l-.352 1.054c-.547 1.485-.898 2.54-1.054 3.165-1.016 0-2.461-.04-4.336-.118-4.219 0-6.993-.078-8.321-.234-4.062 0-6.796-1.055-8.203-3.164-.781 1.328-1.875 2.695-3.281 4.101-.625-.78-1.68-1.914-3.164-3.398 2.656-2.344 4.18-5.742 4.57-10.195l4.571.703a47.568 47.568 0 0 1-.821 4.101c.938 1.953 2.305 3.164 4.102 3.633V19.75h-10.43v-4.102h24.961v4.102h-9.727v2.813h9.024Zm-25.078-7.5V9.087h10.664l-.352-1.406c-.156-.703-.273-1.172-.351-1.407l5.742-.351c.156.547.391 1.601.703 3.164h10.195v5.976h-4.687v-1.874h-17.227v1.874h-4.687Zm54.844-5.507c-2.032 7.265-4.61 12.5-7.735 15.703 2.422 1.719 5.899 3.164 10.43 4.336-1.25 1.953-2.188 3.515-2.813 4.687-4.609-1.484-8.437-3.32-11.484-5.508-2.891 1.954-6.719 3.907-11.484 5.86a1.841 1.841 0 0 0-.352-.469 49.248 49.248 0 0 0-2.461-3.984c4.219-1.328 7.735-3.008 10.547-5.04-2.969-3.28-5.625-8.242-7.969-14.882l4.571-1.64c2.031 6.015 4.414 10.468 7.148 13.359 2.969-3.282 5.195-7.891 6.68-13.829l4.922 1.407Zm-11.133-3.399c.937 1.875 2.031 4.219 3.281 7.032l-4.57 1.757a63.42 63.42 0 0 0-3.047-7.148l4.336-1.64Zm27.539 11.367 8.203-5.625h-19.219V7.563h25.899v5.156l-9.727 6.797v9.492c.156 3.281-1.406 4.883-4.687 4.805-1.329.078-3.516.117-6.563.117a41.507 41.507 0 0 0-.937-4.688c.625.078 2.304.117 5.039.117 1.484.157 2.148-.547 1.992-2.109v-9.727Zm37.383 10.196v-6.68h-8.203v-4.57h16.874v4.57h-3.75v7.734c.157 3.282-1.445 4.961-4.804 5.04-.86 0-2.07.039-3.633.117h-2.227c0-.157-.039-.43-.117-.82-.234-1.563-.469-2.735-.703-3.516h2.11c1.171.078 1.992.117 2.46.117 1.407 0 2.071-.664 1.993-1.992Zm-11.368 6.562h-4.57v-9.375a19.586 19.586 0 0 1-2.344 1.992c-.078-.312-.234-.82-.468-1.523-.391-1.406-.703-2.422-.938-3.047 2.344-1.875 4.844-4.492 7.5-7.851l3.633 2.695a1.363 1.363 0 0 0-.234.351c-1.016 1.329-1.875 2.305-2.579 2.93v13.828Zm4.102-26.367h15v4.453h-15V7.914Zm-5.273-1.758 3.75 2.93c-2.5 2.734-5.391 5.39-8.672 7.969-.157-.313-.43-.938-.821-1.875-.547-1.328-.937-2.227-1.171-2.696 2.265-1.562 4.57-3.671 6.914-6.328Zm23.32 27.07v-4.453h7.5v-4.57l-3.281 1.172c-.938-2.969-2.383-7.266-4.336-12.89l4.218-1.407 1.055 2.813c1.016 2.968 1.797 5.234 2.344 6.796V6.626h4.805v22.148h3.046V6.625h4.805v13.828c.313-.781.781-2.031 1.406-3.75.938-2.5 1.602-4.336 1.993-5.508l4.335 1.524c-1.718 4.844-3.281 8.984-4.687 12.422l-3.047-1.172v4.804h7.383v4.454h-27.539Z"/><defs><linearGradient id="a" x1="36.5" x2="5.5" y1="21" y2="21" gradientUnits="userSpaceOnUse"><stop stop-color="#5576F6"/><stop offset="1" stop-color="#fff" stop-opacity="0"/></linearGradient><linearGradient id="b" x1="356.5" x2="325.5" y1="21" y2="21.0178" gradientUnits="userSpaceOnUse"><stop stop-color="#fff" stop-opacity="0"/><stop offset="1" stop-color="#5576F6"/></linearGradient><linearGradient id="c" x1="160.574" x2="121.999" y1="33.7273" y2="-22.9043" gradientUnits="userSpaceOnUse"><stop offset="0.114583" stop-color="#5475F5"/><stop offset="0.197917" stop-color="#567BFF"/><stop offset="0.291667" stop-color="#7896FF"/><stop offset="1" stop-color="#214CF0"/></linearGradient></defs></svg>