<svg width="361" height="122" fill="none" xmlns="http://www.w3.org/2000/svg"><g filter="url(#a)"><path d="M91 5h248c9.941 0 18 8.059 18 18v46H91V5Z" fill="url(#b)"/></g><g filter="url(#c)"><path fill-rule="evenodd" clip-rule="evenodd" d="M300.807 9.32A18 18 0 0 0 285.632 1H21C11.059 1 3 9.059 3 19v80c0 9.941 8.059 18 18 18h319c9.941 0 18-8.059 18-18V63.015l-.232-15.288C357.619 37.894 349.605 30 339.77 30h-15.902a18 18 0 0 1-15.175-8.32l-7.886-12.36Z" fill="url(#d)"/><path d="M21 1.5h264.632c5.976 0 11.539 3.05 14.754 8.088l7.885 12.362a18.5 18.5 0 0 0 15.597 8.55h15.902c9.562 0 17.354 7.674 17.498 17.235l.232 15.28V99c0 9.665-7.835 17.5-17.5 17.5H21c-9.665 0-17.5-7.835-17.5-17.5V19C3.5 9.335 11.335 1.5 21 1.5Z" stroke="#fff"/></g><defs><linearGradient id="b" x1="327.5" y1="7.5" x2="272.5" y2="35.5" gradientUnits="userSpaceOnUse"><stop stop-color="#8E9DF1"/><stop offset="1" stop-color="#3753DF"/></linearGradient><linearGradient id="d" x1="163.933" y1="1" x2="163.933" y2="117" gradientUnits="userSpaceOnUse"><stop stop-color="#F9F9FA"/><stop offset=".959" stop-color="#F2F4FF"/><stop offset="1" stop-color="#FCFCFC"/></linearGradient><filter id="a" x="-9" y="-95" width="466" height="264" filterUnits="userSpaceOnUse" color-interpolation-filters="sRGB"><feFlood flood-opacity="0" result="BackgroundImageFix"/><feGaussianBlur in="BackgroundImageFix" stdDeviation="50"/><feComposite in2="SourceAlpha" operator="in" result="effect1_backgroundBlur_136_16675"/><feColorMatrix in="SourceAlpha" values="0 0 0 0 0 0 0 0 0 0 0 0 0 0 0 0 0 0 127 0" result="hardAlpha"/><feOffset/><feGaussianBlur stdDeviation="1"/><feComposite in2="hardAlpha" operator="out"/><feColorMatrix values="0 0 0 0 0.294118 0 0 0 0 0.423529 0 0 0 0 0.858824 0 0 0 0.16 0"/><feBlend in2="effect1_backgroundBlur_136_16675" result="effect2_dropShadow_136_16675"/><feBlend in="SourceGraphic" in2="effect2_dropShadow_136_16675" result="shape"/></filter><filter id="c" x="0" y="0" width="361" height="122" filterUnits="userSpaceOnUse" color-interpolation-filters="sRGB"><feFlood flood-opacity="0" result="BackgroundImageFix"/><feColorMatrix in="SourceAlpha" values="0 0 0 0 0 0 0 0 0 0 0 0 0 0 0 0 0 0 127 0" result="hardAlpha"/><feOffset dy="2"/><feGaussianBlur stdDeviation="1.5"/><feComposite in2="hardAlpha" operator="out"/><feColorMatrix values="0 0 0 0 0.67451 0 0 0 0 0.694118 0 0 0 0 0.784314 0 0 0 0.26 0"/><feBlend in2="BackgroundImageFix" result="effect1_dropShadow_136_16675"/><feBlend in="SourceGraphic" in2="effect1_dropShadow_136_16675" result="shape"/></filter></defs></svg>