<svg width="40" height="40" viewBox="0 0 40 40" fill="none" xmlns="http://www.w3.org/2000/svg">
<g filter="url(#filter0_f_4900_25961)">
<ellipse cx="21" cy="31.5" rx="10" ry="3.5" fill="#5787F8" fill-opacity="0.3"/>
</g>
<path d="M24.1905 5.62323C25.5221 4.29162 27.681 4.29162 29.0127 5.62323C30.3658 6.97641 30.3407 9.17796 28.957 10.4999L27.6679 11.7314C26.9268 12.4393 25.9916 12.9101 24.9816 13.0837L23.7883 13.2888C23.556 13.3288 23.3196 13.3395 23.0846 13.3208C20.6806 13.129 19.605 10.2087 21.3103 8.50341L24.1905 5.62323Z" fill="url(#paint0_linear_4900_25961)" stroke="url(#paint1_linear_4900_25961)" stroke-width="0.3"/>
<path d="M17.4402 5.65232C16.0925 4.30464 13.9075 4.30464 12.5598 5.65232C11.2121 6.99999 11.2121 9.18501 12.5598 10.5327L13.6486 11.6215C14.4904 12.4633 15.6055 12.9765 16.7925 13.0683L20.2295 13.3344C20.3579 13.3443 20.487 13.3416 20.6149 13.3263C22.2442 13.1312 22.9319 11.144 21.7716 9.98369L17.4402 5.65232Z" fill="url(#paint2_linear_4900_25961)" stroke="url(#paint3_linear_4900_25961)" stroke-width="0.3"/>
<path fill-rule="evenodd" clip-rule="evenodd" d="M6.12109 12.5216C6.12109 10.3566 7.87614 8.60156 10.0411 8.60156H32.4411C34.606 8.60156 36.3611 10.3566 36.3611 12.5216C36.3611 13.2198 36.1785 13.8755 35.8585 14.4433V14.4326H6.61767C6.30138 13.8672 6.12109 13.2155 6.12109 12.5216ZM8.23251 16.0003C8.27436 16.0221 8.31666 16.0432 8.35938 16.0635V28.0009C8.35938 29.6578 9.70252 31.0009 11.3594 31.0009H31.1194C32.7762 31.0009 34.1194 29.6578 34.1194 28.0009V16.0651C34.1633 16.0443 34.2067 16.0227 34.2497 16.0003H8.23251Z" fill="url(#paint4_linear_4900_25961)"/>
<rect x="20" y="8.60156" width="2.24" height="22.4" fill="url(#paint5_linear_4900_25961)"/>
<g filter="url(#filter1_b_4900_25961)">
<circle cx="12.4805" cy="24.5195" r="8" fill="#A3B5FE" fill-opacity="0.6"/>
<circle cx="12.4805" cy="24.5195" r="7.76562" stroke="url(#paint6_linear_4900_25961)" stroke-width="0.46875"/>
</g>
<g filter="url(#filter2_d_4900_25961)">
<path d="M12.2757 27.7632L10.8092 28.2637C10.7032 28.2999 10.5903 28.3095 10.48 28.2917C10.3697 28.2739 10.265 28.2293 10.1746 28.1614C10.0842 28.0936 10.0106 28.0045 9.95999 27.9015C9.90935 27.7984 9.88306 27.6844 9.88328 27.5688L9.88628 25.9474C9.88658 25.7931 9.83968 25.6427 9.75229 25.5177L8.83324 24.2036C8.76803 24.1104 8.72504 24.0025 8.70778 23.8888C8.69051 23.7751 8.69946 23.6588 8.73389 23.5493C8.76832 23.4399 8.82726 23.3404 8.90589 23.259C8.98453 23.1777 9.08064 23.1167 9.18637 23.0811L10.6638 22.5838C10.8065 22.5356 10.9307 22.4416 11.0183 22.3153L11.9236 21.0103C11.9889 20.9161 12.0749 20.8394 12.1745 20.7865C12.2741 20.7336 12.3844 20.7061 12.4964 20.7061C12.6083 20.7061 12.7187 20.7336 12.8183 20.7865C12.9179 20.8394 13.0039 20.9161 13.0692 21.0103L13.9745 22.3153C14.0621 22.4415 14.1863 22.5355 14.329 22.5836L15.8064 23.0811C15.9121 23.1167 16.0082 23.1777 16.0869 23.259C16.1655 23.3404 16.2244 23.4399 16.2589 23.5493C16.2933 23.6588 16.3022 23.7751 16.285 23.8888C16.2677 24.0025 16.2247 24.1104 16.1595 24.2036L15.2405 25.5177C15.1531 25.6427 15.1062 25.7931 15.1065 25.9474L15.1095 27.5688C15.1097 27.6844 15.0834 27.7984 15.0328 27.9015C14.9821 28.0045 14.9086 28.0936 14.8182 28.1614C14.7278 28.2293 14.6231 28.2739 14.5128 28.2917C14.4024 28.3095 14.2896 28.2999 14.1836 28.2637L12.7171 27.7632C12.5737 27.7143 12.419 27.7143 12.2757 27.7632Z" fill="url(#paint7_linear_4900_25961)"/>
</g>
<defs>
<filter id="filter0_f_4900_25961" x="7" y="24" width="28" height="15" filterUnits="userSpaceOnUse" color-interpolation-filters="sRGB">
<feFlood flood-opacity="0" result="BackgroundImageFix"/>
<feBlend mode="normal" in="SourceGraphic" in2="BackgroundImageFix" result="shape"/>
<feGaussianBlur stdDeviation="2" result="effect1_foregroundBlur_4900_25961"/>
</filter>
<filter id="filter1_b_4900_25961" x="2.60547" y="14.6445" width="19.75" height="19.75" filterUnits="userSpaceOnUse" color-interpolation-filters="sRGB">
<feFlood flood-opacity="0" result="BackgroundImageFix"/>
<feGaussianBlur in="BackgroundImageFix" stdDeviation="0.9375"/>
<feComposite in2="SourceAlpha" operator="in" result="effect1_backgroundBlur_4900_25961"/>
<feBlend mode="normal" in="SourceGraphic" in2="effect1_backgroundBlur_4900_25961" result="shape"/>
</filter>
<filter id="filter2_d_4900_25961" x="7.01159" y="19.0184" width="10.9695" height="10.9695" filterUnits="userSpaceOnUse" color-interpolation-filters="sRGB">
<feFlood flood-opacity="0" result="BackgroundImageFix"/>
<feColorMatrix in="SourceAlpha" type="matrix" values="0 0 0 0 0 0 0 0 0 0 0 0 0 0 0 0 0 0 127 0" result="hardAlpha"/>
<feOffset/>
<feGaussianBlur stdDeviation="0.843813"/>
<feComposite in2="hardAlpha" operator="out"/>
<feColorMatrix type="matrix" values="0 0 0 0 0.0479167 0 0 0 0 0.146087 0 0 0 0 0.383333 0 0 0 0.06 0"/>
<feBlend mode="normal" in2="BackgroundImageFix" result="effect1_dropShadow_4900_25961"/>
<feBlend mode="normal" in="SourceGraphic" in2="effect1_dropShadow_4900_25961" result="shape"/>
</filter>
<linearGradient id="paint0_linear_4900_25961" x1="27.8441" y1="4.68" x2="24.4841" y2="10.28" gradientUnits="userSpaceOnUse">
<stop stop-color="#98C0F9"/>
<stop offset="1" stop-color="#5590F7"/>
</linearGradient>
<linearGradient id="paint1_linear_4900_25961" x1="28.4041" y1="4.68" x2="23.3641" y2="6.36" gradientUnits="userSpaceOnUse">
<stop stop-color="#8FBBF9"/>
<stop offset="1" stop-color="white" stop-opacity="0"/>
</linearGradient>
<linearGradient id="paint2_linear_4900_25961" x1="13.7575" y1="4.68" x2="17.1175" y2="10.28" gradientUnits="userSpaceOnUse">
<stop stop-color="#98C0F9"/>
<stop offset="1" stop-color="#5590F7"/>
</linearGradient>
<linearGradient id="paint3_linear_4900_25961" x1="13.1975" y1="4.68" x2="18.2375" y2="6.36" gradientUnits="userSpaceOnUse">
<stop stop-color="#8FBBF9"/>
<stop offset="1" stop-color="white" stop-opacity="0"/>
</linearGradient>
<linearGradient id="paint4_linear_4900_25961" x1="21.2411" y1="8.60156" x2="21.2411" y2="16.4416" gradientUnits="userSpaceOnUse">
<stop stop-color="#70A6F8"/>
<stop offset="1" stop-color="#3673F6"/>
</linearGradient>
<linearGradient id="paint5_linear_4900_25961" x1="21.12" y1="8.60156" x2="21.12" y2="31.0016" gradientUnits="userSpaceOnUse">
<stop stop-color="white"/>
<stop offset="1" stop-color="#D9D9D9" stop-opacity="0"/>
</linearGradient>
<linearGradient id="paint6_linear_4900_25961" x1="7.82542" y1="21.4607" x2="19.0026" y2="27.7871" gradientUnits="userSpaceOnUse">
<stop stop-color="#C7E4FF"/>
<stop offset="0.890625" stop-color="#F7FBFF" stop-opacity="0.65"/>
<stop offset="1" stop-color="white" stop-opacity="0.96"/>
</linearGradient>
<linearGradient id="paint7_linear_4900_25961" x1="15.2717" y1="21.8136" x2="15.7521" y2="27.6554" gradientUnits="userSpaceOnUse">
<stop stop-color="white"/>
<stop offset="1" stop-color="#D3D9EF"/>
</linearGradient>
</defs>
</svg>
