<svg xmlns="http://www.w3.org/2000/svg" width="20" height="20" fill="none" viewBox="0 0 20 20"><path stroke="#fff" stroke-width="0.8" d="M4 5.6h-.4v8.8h12.8V5.6H4Z"/><path stroke="#fff" stroke-width="0.45" d="M11.275 10.022a1.274 1.274 0 1 1-2.549-.002 1.274 1.274 0 0 1 2.549.002Z"/><path fill="#fff" d="M9.7 5.311h.6v3.395h-.6V5.311Z"/><path stroke="#fff" d="M9.7 5.311h.6v3.395h-.6V5.311Z"/><path fill="#fff" d="M9.7 11.263h.6v3.373h-.6v-3.373Z"/><path stroke="#fff" d="M9.7 11.263h.6v3.373h-.6v-3.373Z"/><path stroke="#fff" stroke-width="0.6" d="M3.89 7.941h-.3v4.049h2.182V7.94H3.891Zm10.61 0h-.3v4.049h2.182V7.94H14.5Z"/></svg>