<svg width="387" height="202" fill="none" xmlns="http://www.w3.org/2000/svg"><g filter="url(#a)"><path d="M115 6h248c9.941 0 18 8.059 18 18v46H115V6Z" fill="url(#b)"/></g><g filter="url(#c)"><path fill-rule="evenodd" clip-rule="evenodd" d="M322.284 10.482A17.999 17.999 0 0 0 307.006 2H24C14.059 2 6 10.059 6 20v154c0 9.941 8.059 18 18 18h339c9.941 0 18-8.059 18-18V50.5c0-9.941-8.059-18-18-18h-17.006a17.999 17.999 0 0 1-15.278-8.483l-8.432-13.534Z" fill="url(#d)"/><path d="M307.006 2.5a17.5 17.5 0 0 1 14.854 8.247l8.431 13.535A18.5 18.5 0 0 0 345.994 33H363c9.665 0 17.5 7.835 17.5 17.5V174c0 9.665-7.835 17.5-17.5 17.5H24c-9.665 0-17.5-7.835-17.5-17.5V20c0-9.665 7.835-17.5 17.5-17.5h283.006Z" stroke="#fff"/></g><defs><linearGradient id="b" x1="351.5" y1="8.5" x2="296.5" y2="36.5" gradientUnits="userSpaceOnUse"><stop stop-color="#8E9DF1"/><stop offset="1" stop-color="#3753DF"/></linearGradient><linearGradient id="d" x1="167.148" y1="2" x2="167.148" y2="513.117" gradientUnits="userSpaceOnUse"><stop stop-color="#F9F9FA"/><stop offset=".917" stop-color="#F2F3F8"/><stop offset="1" stop-color="#FCFCFC"/></linearGradient><filter id="a" x="15" y="-94" width="466" height="264" filterUnits="userSpaceOnUse" color-interpolation-filters="sRGB"><feFlood flood-opacity="0" result="BackgroundImageFix"/><feGaussianBlur in="BackgroundImageFix" stdDeviation="50"/><feComposite in2="SourceAlpha" operator="in" result="effect1_backgroundBlur_107_78798"/><feColorMatrix in="SourceAlpha" values="0 0 0 0 0 0 0 0 0 0 0 0 0 0 0 0 0 0 127 0" result="hardAlpha"/><feOffset/><feGaussianBlur stdDeviation="1"/><feComposite in2="hardAlpha" operator="out"/><feColorMatrix values="0 0 0 0 0.294118 0 0 0 0 0.423529 0 0 0 0 0.858824 0 0 0 0.16 0"/><feBlend in2="effect1_backgroundBlur_107_78798" result="effect2_dropShadow_107_78798"/><feBlend in="SourceGraphic" in2="effect2_dropShadow_107_78798" result="shape"/></filter><filter id="c" x="0" y="0" width="387" height="202" filterUnits="userSpaceOnUse" color-interpolation-filters="sRGB"><feFlood flood-opacity="0" result="BackgroundImageFix"/><feBlend in2="BackgroundImageFix" result="effect1_dropShadow_107_78798"/><feBlend in="SourceGraphic" in2="effect1_dropShadow_107_78798" result="shape"/></filter></defs></svg>