<svg xmlns="http://www.w3.org/2000/svg" width="16" height="16" fill="none" viewBox="0 0 16 16"><path fill="#fff" fill-opacity="0.01" d="M0 0h16v16H0z"/><path fill="#4B6CDB" fill-rule="evenodd" d="M8.265 3h5.674C14.47 3 15 3.515 15 4.03v1.503h-2.008v4.934H15v1.502c0 .516-.53 1.031-1.06 1.031H8.264v-2.361c1.382-.13 2.462-1.262 2.462-2.639 0-1.377-1.08-2.509-2.462-2.639V3ZM15 9.951V6.05h-1.477v3.9H15Zm-7.265-4.59V3H2.06C1.53 3 1 3.515 1 4.03v1.503h2.008v4.934H1v1.502C1 12.485 1.53 13 2.06 13h5.675v-2.361C6.353 10.509 5.273 9.377 5.273 8c0-1.377 1.08-2.509 2.462-2.639ZM1 9.951V6.05h1.477v3.9H1ZM10.197 8c0 1.18-.984 2.136-2.197 2.136S5.803 9.178 5.803 8c0-1.18.984-2.136 2.197-2.136s2.197.957 2.197 2.136Z" clip-rule="evenodd"/></svg>