<svg xmlns="http://www.w3.org/2000/svg" width="32" height="32" fill="none" viewBox="0 0 32 32"><path fill="url(#a)" stroke="url(#b)" stroke-width="0.24" d="M6.12 9A3.88 3.88 0 0 1 10 5.12h12A3.88 3.88 0 0 1 25.88 9v14A3.88 3.88 0 0 1 22 26.88H10A3.88 3.88 0 0 1 6.12 23V9Z"/><path fill="#fff" d="M16.5 7.5a1 1 0 0 1 1-1H22a1 1 0 0 1 1 1v4.71a1 1 0 0 1-1.524.852L19.75 12l-1.726 1.062a1 1 0 0 1-1.524-.852V7.5Z"/><path stroke="#fff" stroke-linecap="round" stroke-width="1.69412" d="M10 17.43h9.412M10 21.068h6.118"/><defs><linearGradient id="a" x1="16" x2="16" y1="5" y2="27" gradientUnits="userSpaceOnUse"><stop stop-color="#83A1ED"/><stop offset="1" stop-color="#4B6CDB"/></linearGradient><linearGradient id="b" x1="16" x2="16" y1="5" y2="27" gradientUnits="userSpaceOnUse"><stop stop-color="#7B89D1"/><stop offset="1" stop-color="#6279EE"/></linearGradient></defs></svg>