<svg width="359" height="217" fill="none" xmlns="http://www.w3.org/2000/svg"><g clip-path="url(#a)"><path d="M359 10c0-5.523-4.477-10-10-10H14C8.477 0 4 4.477 4 10v20.763c1.47-.85 3.179-2.338 5-2.338h46.33a10 10 0 0 0 9.233-6.157l5.874-16.111A10 10 0 0 1 79.669 0H349c5.523 0 10 4.477 10 10Z" fill="url(#b)"/><path d="M0 38.425c0-5.523 4.477-10 10-10h45.147a10 10 0 0 0 9.326-6.39L70.527 6.39A10 10 0 0 1 79.853 0H349c5.523 0 10 4.477 10 10v197c0 5.523-4.477 10-10 10H10c-5.523 0-10-4.477-10-10V38.425Z" fill="url(#c)" fill-opacity=".7"/><path d="M0 38.425c0-5.523 4.477-10 10-10h45.147a10 10 0 0 0 9.326-6.39L70.527 6.39A10 10 0 0 1 79.853 0H349c5.523 0 10 4.477 10 10v197c0 5.523-4.477 10-10 10H10c-5.523 0-10-4.477-10-10V38.425Z" fill="#fff"/></g><defs><linearGradient id="b" x1="185.198" y1="28.425" x2="185.198" y2="-1" gradientUnits="userSpaceOnUse"><stop stop-color="#475FD9"/><stop offset="1" stop-color="#5880E8"/></linearGradient><linearGradient id="c" x1="179" y1="2" x2="179" y2="217" gradientUnits="userSpaceOnUse"><stop stop-color="#BCCAFC"/><stop offset=".063" stop-color="#E0E7FF"/><stop offset=".134" stop-color="#fff"/><stop offset="1" stop-color="#fff"/></linearGradient><clipPath id="a"><path fill="#fff" d="M0 0h359v217H0z"/></clipPath></defs></svg>