<svg xmlns="http://www.w3.org/2000/svg" width="30" height="30" fill="none" viewBox="0 0 30 30"><path fill="#575757" fill-rule="evenodd" d="M23.625 8.772c0-2.35-1.193-3.679-3.394-3.772H9.087C6.734 5 5.455 6.34 5.455 8.772v12.456C5.455 23.661 6.733 25 9.087 25h10.906c2.353 0 3.632-1.34 3.632-3.772v-.67A3.648 3.648 0 0 0 23 20.5c-.234 0-.467.027-.688.07v.658c0 1.72-.704 2.459-2.319 2.459H9.087c-1.615 0-2.319-.737-2.319-2.459V8.772c0-1.72.704-2.459 2.319-2.459h4.796v5.327l.01.113c.106.81 1.134 1.245 1.78.716l1.352-.815 1.46.85c.684.5 1.746 0 1.746-.864l.001-5.321c1.445.072 2.08.819 2.08 2.453v7.659c.22.042.454.069.688.069.211 0 .423-.022.625-.058v-7.67Zm-8.43-2.459h3.721v4.923l-1.905-1.108-1.817 1.102V6.313Z" clip-rule="evenodd"/><path stroke="#575757" stroke-linecap="round" stroke-width="1.58824" d="M9.707 16.34h8.824m-8.824 3.412h5.735"/><path fill="#575757" fill-rule="evenodd" d="M5.805 8.772c0-1.158.304-2.002.836-2.555.53-.552 1.336-.867 2.446-.867h11.137c1.029.045 1.776.375 2.27.924.497.554.781 1.38.781 2.498v7.716a4.44 4.44 0 0 0 .7-.12V8.771c0-1.231-.313-2.245-.961-2.966-.651-.724-1.598-1.106-2.767-1.155H9.087c-1.242 0-2.253.354-2.95 1.08-.696.725-1.032 1.767-1.032 3.041v12.457c0 1.274.336 2.316 1.031 3.04.698.727 1.708 1.081 2.951 1.081h10.907c1.242 0 2.252-.355 2.95-1.08.696-.725 1.031-1.767 1.031-3.041v-.596a4.385 4.385 0 0 0-.7-.121v.717c0 1.158-.304 2.002-.836 2.555-.53.552-1.335.866-2.445.866H9.087c-1.111 0-1.916-.314-2.446-.866-.532-.553-.836-1.397-.836-2.555V8.772Zm16.857 7.71v-7.71c0-.853-.164-1.547-.581-2.039-.425-.5-1.054-.725-1.83-.763l-.368-.019-.001 5.69c0 .28-.175.516-.437.636a.745.745 0 0 1-.74-.046l.001-.002-.06-.043-.004.004-1.62-.942-1.55.935-.02.016c-.423.346-1.133.06-1.211-.483l-.007-.09V5.964H9.087c-.853 0-1.547.195-2.019.694-.468.495-.65 1.218-.65 2.115V21.23c0 .898.182 1.62.65 2.115.472.5 1.166.693 2.02.693h10.906c.853 0 1.547-.194 2.018-.693.468-.495.65-1.218.65-2.115v-.711a4.544 4.544 0 0 0-.7.13v.58c0 .824-.17 1.33-.458 1.635-.284.3-.75.474-1.51.474H9.087c-.761 0-1.227-.174-1.51-.474-.288-.304-.459-.81-.459-1.634V8.772c0-.823.17-1.33.459-1.634.283-.3.749-.475 1.51-.475h4.447v4.99l.01.136.002.01c.14 1.062 1.46 1.641 2.329.959l1.154-.696 1.265.736c.449.319 1.005.316 1.443.115.464-.213.845-.67.845-1.273V6.706c.457.074.761.24.965.48.262.308.415.805.415 1.586v7.58c.216.056.455.105.7.13ZM19.267 5.963h-4.422v5.89l2.17-1.317 2.252 1.309V5.963Zm-3.722 4.646V6.663h3.022v3.965l-1.56-.906-1.462.887Z" clip-rule="evenodd"/></svg>