<svg viewBox="0 0 20 20" fill="none" xmlns="http://www.w3.org/2000/svg"><g filter="url(#a)"><path fill-rule="evenodd" clip-rule="evenodd" d="M13.61 6.33a1 1 0 0 1-.753-.547l-1.96-3.969a1 1 0 0 0-1.794 0l-1.96 3.969a1 1 0 0 1-.752.546l-4.385.64a1 1 0 0 0-.553 1.707l3.17 3.084a1 1 0 0 1 .288.886l-.748 4.357a1 1 0 0 0 1.45 1.055l3.922-2.06a1 1 0 0 1 .93 0l3.921 2.06a1 1 0 0 0 1.451-1.055l-.748-4.357a1 1 0 0 1 .288-.886l3.17-3.084a1 1 0 0 0-.553-1.706l-4.384-.64Z" fill="url(#b)"/></g><defs><linearGradient id="b" x1="10" y1="0" x2="10" y2="19" gradientUnits="userSpaceOnUse"><stop stop-color="#FFF88C"/><stop offset="1" stop-color="#FFC01E"/></linearGradient><filter id="a" x="1.149" y="1.258" width="17.702" height="18.916" filterUnits="userSpaceOnUse" color-interpolation-filters="sRGB"><feFlood flood-opacity="0" result="BackgroundImageFix"/><feBlend in="SourceGraphic" in2="BackgroundImageFix" result="shape"/><feColorMatrix in="SourceAlpha" values="0 0 0 0 0 0 0 0 0 0 0 0 0 0 0 0 0 0 127 0" result="hardAlpha"/><feOffset dy="2"/><feGaussianBlur stdDeviation="1"/><feComposite in2="hardAlpha" operator="arithmetic" k2="-1" k3="1"/><feColorMatrix values="0 0 0 0 1 0 0 0 0 1 0 0 0 0 1 0 0 0 0.12 0"/><feBlend in2="shape" result="effect1_innerShadow_238_13279"/></filter></defs></svg>