<svg xmlns="http://www.w3.org/2000/svg" fill="none" viewBox="0 0 24 22"><path fill="#fff" d="M13.147 11.68a6.256 6.256 0 0 0 2.846-5.212 6.4 6.4 0 0 0-12.792 0 6.255 6.255 0 0 0 2.846 5.213A9.477 9.477 0 0 0 0 20.459v.667a.897.897 0 0 0 1.783 0v-.666a7.83 7.83 0 0 1 15.638 0 5.55 5.55 0 0 1 0 .605.886.886 0 1 0 1.773 0v-.667a9.476 9.476 0 0 0-6.047-8.716Zm-3.545-.708a4.536 4.536 0 1 1 4.587-4.535 4.567 4.567 0 0 1-4.587 4.535Zm14.377 7.913a.907.907 0 0 1-1.54.603.899.899 0 0 1-.264-.634 6.255 6.255 0 0 0-5.556-6.381 1.043 1.043 0 0 1 0-2.023 3.409 3.409 0 0 0 .49-6.61l-.22-.062a.9.9 0 1 1 .147-1.793h.166a5.213 5.213 0 0 1 1.741 9.518A7.913 7.913 0 0 1 24 18.801l-.02.084Z"/></svg>