<svg viewBox="0 0 18 18" fill="none" xmlns="http://www.w3.org/2000/svg"><g clip-path="url(#a)"><path fill-rule="evenodd" clip-rule="evenodd" d="M10.75 1.35V3a3 3 0 0 0 3 3h1.65v5.25a2.4 2.4 0 0 1-2.4 2.4H7.75a2.4 2.4 0 0 1-2.4-2.4v-7.5a2.4 2.4 0 0 1 2.4-2.4h3Zm1.35.56V3c0 .911.739 1.65 1.65 1.65h1.09L12.1 1.91ZM16.75 6v5.25A3.75 3.75 0 0 1 13 15H7.75A3.75 3.75 0 0 1 4 11.25V4.47a2.401 2.401 0 0 0-1.65 2.28v7.5a2.4 2.4 0 0 0 2.4 2.4H10A2.401 2.401 0 0 0 12.28 15h1.395A3.751 3.751 0 0 1 10 18H4.75A3.75 3.75 0 0 1 1 14.25v-7.5a3.751 3.751 0 0 1 3.063-3.687A3.751 3.751 0 0 1 7.75 0h4.35l4.65 4.65V6Z" fill="#9BA1AE"/></g><defs><clipPath id="a"><path fill="#fff" d="M0 0h18v18H0z"/></clipPath></defs></svg>