<svg xmlns="http://www.w3.org/2000/svg" width="14" height="14" fill="none" viewBox="0 0 14 14"><path fill="#434343" fill-rule="evenodd" d="M10 1.5H4v1a1 1 0 0 1-2 0v-1h-.526C.66 1.5 0 2.16 0 2.974v9.052C0 12.84.66 13.5 1.474 13.5h11.052c.814 0 1.474-.66 1.474-1.474V2.974c0-.814-.66-1.474-1.474-1.474H12v1a1 1 0 1 1-2 0v-1ZM1.958 4.88A.958.958 0 0 0 1 5.84v5.703c0 .53.429.958.958.958h10.084c.53 0 .958-.429.958-.958V5.839a.958.958 0 0 0-.958-.958H1.958Z" clip-rule="evenodd"/><path fill="#434343" d="M2.5.5a.5.5 0 0 1 1 0v2a.5.5 0 0 1-1 0v-2Zm8 0a.5.5 0 0 1 1 0v2a.5.5 0 0 1-1 0v-2ZM2 6.5h3V8H2zm4 0h3V8H6zm4 0h2V8h-2V6.5ZM2 9h3v1.5H2zm4 0h3v1.5H6zm4 0h2v1.5h-2V9Z"/></svg>