<svg viewBox="0 0 24 24" fill="none" xmlns="http://www.w3.org/2000/svg"><g fill="#303033"><g fill-rule="evenodd" clip-rule="evenodd"><path d="M11.699 22.125C7.249 20.661 3.8 15.877 3.8 10.77V5.472l7.919-3.504 7.91 3.503V9.1a.9.9 0 1 0 1.8 0V4.3L11.719 0 2 4.3v6.47c0 6.02 4.157 11.7 9.649 13.22l.07.01.06-.02c.228-.063.453-.133.675-.21a.825.825 0 0 0 .546-.787c0-.64-.676-1.063-1.284-.864l-.017.006Z"/><path d="M10.125 6.775c.5-.5 1.175-.775 1.9-.775.7 0 1.4.275 1.9.775s.775 1.15.775 1.85c0 .25-.2.425-.45.425s-.45-.2-.45-.425c0-.45-.2-.9-.525-1.225a1.757 1.757 0 0 0-1.25-.5c-.475 0-.925.175-1.25.5a1.767 1.767 0 0 0-.525 1.225c0 .25-.2.425-.45.425s-.45-.2-.45-.425c0-.7.275-1.375.775-1.85ZM8.4 10.3c.25-.25.6-.375.95-.375h5.35c.35 0 .7.15.95.375.25.25.4.575.4.925V14.7c0 .35-.15.675-.4.925s-.6.375-.95.375H9.35c-.35 0-.7-.15-.95-.375-.25-.25-.4-.575-.4-.925v-3.475c.025-.35.15-.675.4-.925Zm4.075 3.975v-1c.175-.1.3-.25.375-.425.075-.175.1-.375.025-.55a.805.805 0 0 0-.3-.45.852.852 0 0 0-.55-.175c-.2 0-.375.075-.55.175-.15.1-.25.275-.3.45a.833.833 0 0 0 .025.55c.075.175.2.325.375.425v1c0 .125.05.225.125.3.075.075.2.125.325.125s.225-.05.325-.125a.414.414 0 0 0 .125-.3Z"/></g><path d="m15.367 21.913-.952.086a.382.382 0 0 1-.413-.414l.085-.953c.035-.393.208-.759.487-1.038l7.216-7.216a1.295 1.295 0 0 1 1.832 1.829l-7.22 7.22a1.703 1.703 0 0 1-1.035.486Z"/></g></svg>