<svg xmlns="http://www.w3.org/2000/svg" width="30" height="30" fill="none" viewBox="0 0 30 30"><path fill="#575757" d="M4.563 15.27c-.437-4.79 3.74-10.24 9.39-10.79.355-.035.715-.082 1.066-.053.725.059 1.164.48 1.13 1.075-.037.623-.412.961-1.021 1.041-.443.06-.887.091-1.327.165-4.078.683-6.918 3.897-7.103 8.03-.177 3.948 2.493 7.465 6.425 8.463 4.289 1.087 8.785-1.537 10.049-5.867.1-.343.156-.7.287-1.03.236-.593.721-.855 1.264-.704.544.152.792.556.808 1.095.007.217-.066.438-.113.655-1.006 4.761-5.292 8.222-10.213 8.247-5.028.027-9.387-3.364-10.419-8.156-.166-.776-.163-1.371-.223-2.171Z"/><path fill="#575757" d="M16.604 19.497H13.9c.37-.652.702-1.238 1.036-1.824-.062-.055-.122-.112-.183-.167-.189.128-.378.257-.568.384-.804.542-1.638.536-2.45.057-.805-.476-1.123-1.255-.927-2.133.126-.565.48-1.081.756-1.606.085-.161.246-.285.382-.415a1791.14 1791.14 0 0 1 3.295-3.157c1.23 1.19 2.484 2.367 3.692 3.59.307.31.529.743.682 1.16a2.142 2.142 0 0 1-.689 2.447c-.755.594-1.792.612-2.633.037-.183-.126-.348-.28-.546-.441.018.76.018.76.857 2.068Zm8.121-8.604c-.216.251-.431.7-.772.84-.284.117-.769-.043-1.067-.234-.276-.176-.436-.549-.62-.849A8.502 8.502 0 0 0 18.9 7.51c-.236-.124-.479-.24-.693-.396-.454-.328-.579-.775-.366-1.291.212-.512.772-.79 1.327-.56 2.393.986 4.177 2.649 5.352 4.957.078.154.103.336.205.672Z"/></svg>