<svg viewBox="0 0 24 24" fill="none" xmlns="http://www.w3.org/2000/svg"><g fill="#303033"><path fill-rule="evenodd" clip-rule="evenodd" d="M15.2 6.6v-.1a4.2 4.2 0 1 0-8.4 0v.1a.9.9 0 1 1-1.8 0v-.1a6 6 0 1 1 12 0v.1a.9.9 0 1 1-1.8 0Z"/><path d="m15.367 23.913-.952.086a.382.382 0 0 1-.413-.414l.085-.953c.035-.393.208-.759.487-1.038l7.216-7.216a1.295 1.295 0 0 1 1.832 1.829l-7.22 7.22a1.703 1.703 0 0 1-1.035.486Z"/><path fill-rule="evenodd" clip-rule="evenodd" d="M6 10.8h10a2.2 2.2 0 0 1 2.2 2.2v.1a.9.9 0 1 0 1.8 0V13a4 4 0 0 0-4-4H6a4 4 0 0 0-4 4v7a4 4 0 0 0 4 4h6.1a.9.9 0 1 0 0-1.8H6A2.2 2.2 0 0 1 3.8 20v-7A2.2 2.2 0 0 1 6 10.8Z"/><path fill-rule="evenodd" clip-rule="evenodd" d="M12 16.732A2 2 0 0 0 11 13a2 2 0 0 0-1 3.732V19a1 1 0 1 0 2 0v-2.268Z"/></g></svg>