<svg xmlns="http://www.w3.org/2000/svg" width="32" height="32" fill="none" viewBox="0 0 32 32"><path fill="url(#a)" stroke="url(#b)" stroke-width="0.24" d="M16.029 27.163h-.012c-6.004.265-11.18-5.167-11.19-11.132-.008-5.377 4.44-11.22 11.168-11.204v-.12.12a11.176 11.176 0 0 1 11.18 11.177c.028 6.693-5.738 11.44-11.146 11.16Z"/><path fill="#fff" d="M16.053 10.355c1.442 1.357 2.842 2.604 4.15 3.94.508.519.914 1.2 1.177 1.88.46 1.191.055 2.298-.925 2.967-1.035.708-2.246.634-3.243-.21-.2-.17-.362-.384-.59-.628-.127.98-.127.98.8 2.772h-2.78c.488-.883 1.177-1.596 1.006-2.762-.309.265-.526.457-.75.643-.947.785-2.158.887-3.136.264a2.56 2.56 0 0 1-1.013-3.091c.23-.599.578-1.205 1.024-1.658 1.376-1.397 2.823-2.724 4.28-4.117Z"/><defs><linearGradient id="a" x1="16.0011" x2="16.0011" y1="4.70703" y2="27.2953" gradientUnits="userSpaceOnUse"><stop stop-color="#83A1ED"/><stop offset="1" stop-color="#4B6CDB"/></linearGradient><linearGradient id="b" x1="16.0011" x2="16.0011" y1="4.70703" y2="27.2953" gradientUnits="userSpaceOnUse"><stop stop-color="#7B89D1"/><stop offset="1" stop-color="#6279EE"/></linearGradient></defs></svg>