<svg xmlns="http://www.w3.org/2000/svg" width="16" height="16" fill="none" viewBox="0 0 16 16"><path fill="#4B6CDB" d="M7.983 15.842a7.845 7.845 0 0 1-5.565-2.305A7.844 7.844 0 0 1 .111 7.972a7.844 7.844 0 0 1 2.305-5.565A7.843 7.843 0 0 1 7.983.102a7.844 7.844 0 0 1 5.565 2.305 7.845 7.845 0 0 1 2.305 5.565 7.845 7.845 0 0 1-2.305 5.565 7.844 7.844 0 0 1-5.565 2.305Zm0-14.625a6.763 6.763 0 0 0-6.755 6.755 6.763 6.763 0 0 0 6.755 6.755 6.763 6.763 0 0 0 6.755-6.755 6.763 6.763 0 0 0-6.755-6.755Zm-3.41 7.645L3.367 7.527 4.71 4.95l2.544.575-.238 1.989-2.444 1.347Zm-.057.34L3.04 7.567l1.528-2.926 2.983.674-.282 2.368L4.516 9.2Zm-.823-1.717.937 1.037 2.136-1.177.192-1.61-2.104-.475-1.161 2.225Zm7.38 4.937-1.753-.494-.168-2.287 2.353-.941 1.381 1.731-1.813 1.991Zm.088.305-2.096-.59-.196-2.673 2.722-1.09 1.65 2.069-2.08 2.284ZM9.576 11.72l1.41.397 1.546-1.697-1.113-1.395-1.983.793.14 1.902Zm4.45-7.9-1.687.753-1.946-1.147.338-2.058 3.295 2.452Zm-1.704 1.056-2.225-1.311.368-2.241.533.087-.309 1.876 1.668.983 1.56-.697.22.493-1.815.81Zm-9.648 8.063 1.112-.842 2.09 1.296-.14 1.442-3.062-1.896Zm3.33 1.922-.536-.052.124-1.275-1.79-1.11-.966.73-.325-.43 1.26-.954 2.39 1.482-.156 1.609ZM5.703.751l-.117.964-.895 1.296-1.366-.24L5.702.75Zm-.889 2.555-1.536-.27.094-.531 1.195.21.76-1.098.108-.898.535.065-.124 1.03-1.032 1.492Z"/></svg>