<svg xmlns="http://www.w3.org/2000/svg" width="12" height="12" fill="none" viewBox="0 0 12 12"><path fill="#434343" fill-rule="evenodd" d="M10.455.559A.954.954 0 0 0 9.578 0H.972a.962.962 0 0 0-.88.559.953.953 0 0 0 .136 1.029L3.7 5.172V9.97c0 .453.27.86.593 1.037l1.124.925a.833.833 0 0 0 .795-.07.837.837 0 0 0 .38-.7v-5.99l3.727-3.584a.953.953 0 0 0 .136-1.029Zm-.764 5.426c-.3 0-.545-.225-.545-.5a.48.48 0 0 1 .16-.354.57.57 0 0 1 .385-.146h1.765c.3 0 .545.225.545.5s-.245.5-.545.5H9.69Zm-.545 1.5c0 .275.245.5.545.5h1.765c.3 0 .545-.225.545-.5s-.245-.5-.545-.5H9.69a.57.57 0 0 0-.385.146.48.48 0 0 0-.16.354Zm.545 2.5c-.3 0-.545-.225-.545-.5a.48.48 0 0 1 .16-.354.57.57 0 0 1 .385-.146h1.765c.3 0 .545.225.545.5s-.245.5-.545.5H9.69Z" clip-rule="evenodd"/></svg>