<svg width="357" height="167" fill="none" xmlns="http://www.w3.org/2000/svg"><path d="M16.03 4C10.507 4 5.986 8.477 5.986 14v22.5c1.45-.857 3.134-2.356 4.93-2.356h59.823c3.981 0 7.572-2.447 9.102-6.204l5.792-17.736C87.163 6.448 90.753 4 94.735 4H16.03Z" fill="url(#a)"/><path d="M16.03 4C10.507 4 5.986 8.477 5.986 14v22.5c1.45-.857 3.134-2.356 4.93-2.356h59.823c3.981 0 7.572-2.447 9.102-6.204l5.792-17.736C87.163 6.448 90.753 4 94.735 4H16.03Z" fill="#000" fill-opacity=".02"/><g filter="url(#b)"><path d="M1 39.587c0-5.523 4.477-10 10-10h56.807a10 10 0 0 0 9.389-6.558l6.038-16.471A10 10 0 0 1 92.624 0H346c5.523 0 10 4.477 10 10v145c0 5.523-4.477 10-10 10H11c-5.523 0-10-4.477-10-10V39.587Z" fill="url(#c)" fill-opacity=".7"/><path d="M1 39.587c0-5.523 4.477-10 10-10h56.807a10 10 0 0 0 9.389-6.558l6.038-16.471A10 10 0 0 1 92.624 0H346c5.523 0 10 4.477 10 10v145c0 5.523-4.477 10-10 10H11c-5.523 0-10-4.477-10-10V39.587Z" fill="#fff"/></g><defs><linearGradient id="a" x1="80.5" y1="27" x2="68.5" y2="-10" gradientUnits="userSpaceOnUse"><stop stop-color="#E39826"/><stop offset=".432" stop-color="#FCD980"/><stop offset=".974" stop-color="#F0B36C"/></linearGradient><linearGradient id="c" x1="177.507" y1="1.987" x2="177.507" y2="215.63" gradientUnits="userSpaceOnUse"><stop stop-color="#BCCAFC"/><stop offset=".063" stop-color="#E0E7FF"/><stop offset=".134" stop-color="#fff"/><stop offset="1" stop-color="#fff"/></linearGradient><filter id="b" x="0" y="0" width="357" height="167" filterUnits="userSpaceOnUse" color-interpolation-filters="sRGB"><feFlood flood-opacity="0" result="BackgroundImageFix"/><feColorMatrix in="SourceAlpha" values="0 0 0 0 0 0 0 0 0 0 0 0 0 0 0 0 0 0 127 0" result="hardAlpha"/><feOffset dy="1"/><feGaussianBlur stdDeviation=".5"/><feComposite in2="hardAlpha" operator="out"/><feColorMatrix values="0 0 0 0 0 0 0 0 0 0 0 0 0 0 0 0 0 0 0.05 0"/><feBlend in2="BackgroundImageFix" result="effect1_dropShadow_106_4929"/><feBlend in="SourceGraphic" in2="effect1_dropShadow_106_4929" result="shape"/></filter></defs></svg>