<svg xmlns="http://www.w3.org/2000/svg" width="32" height="32" fill="none" viewBox="0 0 32 32"><path fill="url(#a)" stroke="url(#b)" stroke-width="0.24" d="M27.475 14.262c.453.38.5 1.055.131 1.513-.205.25-.514.397-.837.397-.264 0-.5-.088-.708-.252l-.002-.001-.275-.21-.002-.002-.161-.13-.195-.155v8.83a2.324 2.324 0 0 1-2.328 2.328H8.868a2.324 2.324 0 0 1-2.327-2.327V15.4l-.196.162-.55.453a1.074 1.074 0 0 1-1.451-.192 1.117 1.117 0 0 1 .148-1.562l9.247-7.977a3.354 3.354 0 0 1 4.41 0h.002l9.324 7.977Z"/><path fill="#fff" fill-rule="evenodd" d="M11.8 14.896c-.443 0-.809.362-.738.8a4.952 4.952 0 0 0 9.772 0c.072-.438-.295-.8-.738-.8s-.792.365-.897.795a3.347 3.347 0 0 1-6.501 0c-.105-.43-.454-.795-.897-.795Z" clip-rule="evenodd"/><defs><linearGradient id="a" x1="15.9727" x2="15.9727" y1="5.33789" y2="26.7003" gradientUnits="userSpaceOnUse"><stop stop-color="#83A1ED"/><stop offset="1" stop-color="#4B6CDB"/></linearGradient><linearGradient id="b" x1="15.9727" x2="15.9727" y1="5.33789" y2="26.7003" gradientUnits="userSpaceOnUse"><stop stop-color="#7B89D1"/><stop offset="1" stop-color="#6279EE"/></linearGradient></defs></svg>