<svg xmlns="http://www.w3.org/2000/svg" width="33" height="33" fill="none" viewBox="0 0 33 33"><g filter="url(#a)"><path stroke="#575757" stroke-width="1.9" d="M27.241 14.004h.002a.153.153 0 0 1 .054.11.21.21 0 0 1-.042.143.187.187 0 0 1-.139.065c-.047 0-.089-.01-.15-.058l-.01-.008-.252-.193-.145-.116-1.544-1.235v10.047c0 .75-.602 1.352-1.351 1.352H9.853A1.349 1.349 0 0 1 8.5 22.76v-10.1l-1.554 1.28-.479.394a.194.194 0 0 1-.118.026.166.166 0 0 1-.106-.06.213.213 0 0 1 .032-.297l8.946-7.534.007-.006.006-.006a2.32 2.32 0 0 1 3.046 0l.007.006.007.006 8.946 7.535Z"/><path fill="#575757" fill-rule="evenodd" d="M13.088 13.96c-.552 0-1.011.454-.894.994a4.658 4.658 0 0 0 9.1 0c.117-.54-.342-.993-.894-.993s-.982.463-1.186.977a2.657 2.657 0 0 1-4.94 0c-.204-.514-.634-.977-1.186-.977Z" clip-rule="evenodd"/></g><defs><filter id="a" width="32.5035" height="29.6285" x="0.496311" y="3.03583" color-interpolation-filters="sRGB" filterUnits="userSpaceOnUse"><feFlood flood-opacity="0" result="BackgroundImageFix"/><feColorMatrix in="SourceAlpha" result="hardAlpha" values="0 0 0 0 0 0 0 0 0 0 0 0 0 0 0 0 0 0 127 0"/><feOffset dy="2.85104"/><feGaussianBlur stdDeviation="2.37587"/><feComposite in2="hardAlpha" operator="out"/><feColorMatrix values="0 0 0 0 0.211765 0 0 0 0 0.341176 0 0 0 0 0.682353 0 0 0 0.15 0"/><feBlend in2="BackgroundImageFix" result="effect1_dropShadow_4852_21972"/><feBlend in="SourceGraphic" in2="effect1_dropShadow_4852_21972" result="shape"/></filter></defs></svg>