<svg xmlns="http://www.w3.org/2000/svg" width="361" height="156" fill="none" viewBox="0 0 361 156"><g filter="url(#a)"><path fill="url(#b)" d="M20 12c0-6.627 5.373-12 12-12h295.934c6.627 0 12 5.373 12 12v36.331H20V12Z"/></g><g filter="url(#c)"><path fill="url(#d)" d="M13 49.815c0-5.895 4.78-10.674 10.674-10.674h313.652c5.895 0 10.674 4.779 10.674 10.674s-4.779 10.675-10.674 10.675H23.674C17.78 60.49 13 55.71 13 49.814Z"/></g><g filter="url(#e)"><rect width="326.728" height="7.1163" x="17.1328" y="48.3281" fill="#4B6CDB" rx="3.55815"/></g><g filter="url(#f)"><path fill="#fff" d="M20 52h320v76c0 6.627-5.373 12-12 12H32c-6.627 0-12-5.373-12-12V52Z"/></g><g filter="url(#g)" shape-rendering="crispEdges"><path fill="url(#h)" fill-opacity="0.93" d="M20 52h320v76c0 6.627-5.373 12-12 12H32c-6.627 0-12-5.373-12-12V52Z"/><path stroke="url(#i)" d="M20.5 52.5h319V128c0 6.351-5.149 11.5-11.5 11.5H32c-6.351 0-11.5-5.149-11.5-11.5V52.5Z"/></g><defs><filter id="a" width="319.934" height="52.3311" x="20" y="0" color-interpolation-filters="sRGB" filterUnits="userSpaceOnUse"><feFlood flood-opacity="0" result="BackgroundImageFix"/><feBlend in="SourceGraphic" in2="BackgroundImageFix" result="shape"/><feColorMatrix in="SourceAlpha" result="hardAlpha" values="0 0 0 0 0 0 0 0 0 0 0 0 0 0 0 0 0 0 127 0"/><feOffset dy="4"/><feGaussianBlur stdDeviation="4.5"/><feComposite in2="hardAlpha" k2="-1" k3="1" operator="arithmetic"/><feColorMatrix values="0 0 0 0 1 0 0 0 0 1 0 0 0 0 1 0 0 0 0.25 0"/><feBlend in2="shape" result="effect1_innerShadow_5008_23497"/></filter><filter id="c" width="361" height="47.3486" x="0" y="28.1406" color-interpolation-filters="sRGB" filterUnits="userSpaceOnUse"><feFlood flood-opacity="0" result="BackgroundImageFix"/><feColorMatrix in="SourceAlpha" result="hardAlpha" values="0 0 0 0 0 0 0 0 0 0 0 0 0 0 0 0 0 0 127 0"/><feOffset dy="2"/><feGaussianBlur stdDeviation="6.5"/><feComposite in2="hardAlpha" operator="out"/><feColorMatrix values="0 0 0 0 1 0 0 0 0 1 0 0 0 0 1 0 0 0 0.72 0"/><feBlend in2="BackgroundImageFix" result="effect1_dropShadow_5008_23497"/><feBlend in="SourceGraphic" in2="effect1_dropShadow_5008_23497" result="shape"/><feColorMatrix in="SourceAlpha" result="hardAlpha" values="0 0 0 0 0 0 0 0 0 0 0 0 0 0 0 0 0 0 127 0"/><feOffset dy="4"/><feGaussianBlur stdDeviation="3.5"/><feComposite in2="hardAlpha" k2="-1" k3="1" operator="arithmetic"/><feColorMatrix values="0 0 0 0 1 0 0 0 0 1 0 0 0 0 1 0 0 0 0.25 0"/><feBlend in2="shape" result="effect2_innerShadow_5008_23497"/></filter><filter id="e" width="326.729" height="8.11621" x="17.1328" y="48.3281" color-interpolation-filters="sRGB" filterUnits="userSpaceOnUse"><feFlood flood-opacity="0" result="BackgroundImageFix"/><feBlend in="SourceGraphic" in2="BackgroundImageFix" result="shape"/><feColorMatrix in="SourceAlpha" result="hardAlpha" values="0 0 0 0 0 0 0 0 0 0 0 0 0 0 0 0 0 0 127 0"/><feOffset dy="1"/><feGaussianBlur stdDeviation="1.5"/><feComposite in2="hardAlpha" k2="-1" k3="1" operator="arithmetic"/><feColorMatrix values="0 0 0 0 0.0888021 0 0 0 0 0.216455 0 0 0 0 0.645833 0 0 0 0.7 0"/><feBlend in2="shape" result="effect1_innerShadow_5008_23497"/></filter><filter id="f" width="344" height="112" x="8" y="44" color-interpolation-filters="sRGB" filterUnits="userSpaceOnUse"><feFlood flood-opacity="0" result="BackgroundImageFix"/><feColorMatrix in="SourceAlpha" result="hardAlpha" values="0 0 0 0 0 0 0 0 0 0 0 0 0 0 0 0 0 0 127 0"/><feOffset dy="4"/><feGaussianBlur stdDeviation="6"/><feComposite in2="hardAlpha" operator="out"/><feColorMatrix values="0 0 0 0 0 0 0 0 0 0 0 0 0 0 0 0 0 0 0.06 0"/><feBlend in2="BackgroundImageFix" result="effect1_dropShadow_5008_23497"/><feBlend in="SourceGraphic" in2="effect1_dropShadow_5008_23497" result="shape"/></filter><filter id="g" width="344" height="112" x="8" y="44" color-interpolation-filters="sRGB" filterUnits="userSpaceOnUse"><feFlood flood-opacity="0" result="BackgroundImageFix"/><feColorMatrix in="SourceAlpha" result="hardAlpha" values="0 0 0 0 0 0 0 0 0 0 0 0 0 0 0 0 0 0 127 0"/><feOffset dy="4"/><feGaussianBlur stdDeviation="6"/><feComposite in2="hardAlpha" operator="out"/><feColorMatrix values="0 0 0 0 0 0 0 0 0 0 0 0 0 0 0 0 0 0 0.06 0"/><feBlend in2="BackgroundImageFix" result="effect1_dropShadow_5008_23497"/><feBlend in="SourceGraphic" in2="effect1_dropShadow_5008_23497" result="shape"/></filter><linearGradient id="b" x1="179.967" x2="180.116" y1="5.87129e-08" y2="41.3635" gradientUnits="userSpaceOnUse"><stop stop-color="#7E9AF7"/><stop offset="1" stop-color="#4B6CDB"/></linearGradient><linearGradient id="d" x1="180.5" x2="180.528" y1="39.1406" y2="57.4118" gradientUnits="userSpaceOnUse"><stop stop-color="#7E9AF7"/><stop offset="1" stop-color="#4B6CDB"/></linearGradient><linearGradient id="h" x1="181.5" x2="181.5" y1="52" y2="138.667" gradientUnits="userSpaceOnUse"><stop stop-color="#819DF7"/><stop offset="0.125641" stop-color="#C0CFFF"/><stop offset="0.223077" stop-color="#DFE6FF"/><stop offset="1" stop-color="#fff" stop-opacity="0"/></linearGradient><linearGradient id="i" x1="180" x2="180" y1="52" y2="140" gradientUnits="userSpaceOnUse"><stop stop-color="#D9E1FF" stop-opacity="0"/><stop offset="1" stop-color="#DEE6FF"/></linearGradient></defs></svg>