<svg viewBox="0 0 20 20" fill="none" xmlns="http://www.w3.org/2000/svg"><path fill-rule="evenodd" clip-rule="evenodd" d="M13.61 6.33a1 1 0 0 1-.753-.547l-1.96-3.969a1 1 0 0 0-1.794 0l-1.96 3.969a1 1 0 0 1-.752.546l-4.385.64a1 1 0 0 0-.553 1.707l3.17 3.084a1 1 0 0 1 .288.886l-.748 4.357a1 1 0 0 0 1.45 1.055l3.922-2.06a1 1 0 0 1 .93 0l3.921 2.06a1 1 0 0 0 1.451-1.055l-.748-4.357a1 1 0 0 1 .288-.886l3.17-3.084a1 1 0 0 0-.553-1.706l-4.384-.64Zm2.792 2.101-3.551-.518A1.668 1.668 0 0 1 11.597 7L10 3.767 8.402 7a1.667 1.667 0 0 1-1.253.912l-3.55.519 2.56 2.491c.396.386.577.944.483 1.49l-.606 3.532 3.192-1.677a1.658 1.658 0 0 1 1.544 0l3.192 1.678-.606-3.533a1.683 1.683 0 0 1 .483-1.49l2.56-2.491Z" fill="#fff"/></svg>