<svg width="375" height="307" fill="none" xmlns="http://www.w3.org/2000/svg"><path fill="#fff" fill-opacity=".01" d="M0 0h375v307H0z"/><g filter="url(#a)"><path d="M23 4.5h242c6.351 0 11.5 5.149 11.5 11.5v59.027c0 6.351-5.149 11.5-11.5 11.5H23c-6.351 0-11.5-5.149-11.5-11.5V16c0-6.351 5.149-11.5 11.5-11.5Z" fill="url(#b)" stroke="#fff"/><g filter="url(#c)"><path fill-rule="evenodd" clip-rule="evenodd" d="M192.679 15.819A17.999 17.999 0 0 1 209.584 4H347c9.941 0 18 8.059 18 18v259c0 9.941-8.059 18-18 18H28c-9.941 0-18-8.059-18-18v-42.061l.451-166.393c.027-9.922 8.078-17.951 18-17.951h137.465c7.558 0 14.31-4.721 16.905-11.819l9.858-26.958Z" fill="url(#d)"/><path d="M347 4.5H209.584a17.5 17.5 0 0 0-16.436 11.49l-9.857 26.958a18.5 18.5 0 0 1-17.375 12.147H28.451c-9.646 0-17.473 7.806-17.5 17.452L10.5 238.94V281c0 9.665 7.835 17.5 17.5 17.5h319c9.665 0 17.5-7.835 17.5-17.5V22c0-9.665-7.835-17.5-17.5-17.5Z" stroke="#fff"/></g></g><defs><linearGradient id="b" x1="177.5" y1="4" x2="177.5" y2="69.521" gradientUnits="userSpaceOnUse"><stop stop-color="#F3F5FF"/><stop offset="1" stop-color="#DCDFF0"/></linearGradient><linearGradient id="d" x1="204.067" y1="4" x2="204.067" y2="332.068" gradientUnits="userSpaceOnUse"><stop stop-color="#F0F3FF"/><stop offset=".156" stop-color="#F9F9FA"/><stop offset=".987" stop-color="#F2F3F8"/><stop offset="1" stop-color="#FCFCFC"/></linearGradient><filter id="a" x="6" y="4" width="363" height="303" filterUnits="userSpaceOnUse" color-interpolation-filters="sRGB"><feFlood flood-opacity="0" result="BackgroundImageFix"/><feColorMatrix in="SourceAlpha" values="0 0 0 0 0 0 0 0 0 0 0 0 0 0 0 0 0 0 127 0" result="hardAlpha"/><feOffset dy="4"/><feGaussianBlur stdDeviation="2"/><feComposite in2="hardAlpha" operator="out"/><feColorMatrix values="0 0 0 0 0.67451 0 0 0 0 0.694118 0 0 0 0 0.784314 0 0 0 0.1 0"/><feBlend in2="BackgroundImageFix" result="effect1_dropShadow_91_9226"/><feBlend in="SourceGraphic" in2="effect1_dropShadow_91_9226" result="shape"/></filter><filter id="c" x="6" y="4" width="363" height="303" filterUnits="userSpaceOnUse" color-interpolation-filters="sRGB"><feFlood flood-opacity="0" result="BackgroundImageFix"/><feColorMatrix in="SourceAlpha" values="0 0 0 0 0 0 0 0 0 0 0 0 0 0 0 0 0 0 127 0" result="hardAlpha"/><feOffset dy="4"/><feGaussianBlur stdDeviation="2"/><feComposite in2="hardAlpha" operator="out"/><feColorMatrix values="0 0 0 0 0.67451 0 0 0 0 0.694118 0 0 0 0 0.784314 0 0 0 0.1 0"/><feBlend in2="BackgroundImageFix" result="effect1_dropShadow_91_9226"/><feBlend in="SourceGraphic" in2="effect1_dropShadow_91_9226" result="shape"/></filter></defs></svg>