<svg xmlns="http://www.w3.org/2000/svg" fill="none" viewBox="0 0 79 24"><path fill="url(#a)" fill-rule="evenodd" d="M18 0h61C67.885 0 58.399 6.975 54.68 16.786 53.197 20.698 49.844 24 45.66 24H0v-6C0 8.059 8.059 0 18 0Z" clip-rule="evenodd"/><mask id="c" width="79" height="24" x="0" y="0" maskUnits="userSpaceOnUse" style="mask-type:alpha"><path fill="url(#b)" fill-rule="evenodd" d="M18 0h61C67.885 0 58.399 6.975 54.68 16.786 53.197 20.698 49.844 24 45.66 24H0v-6C0 8.059 8.059 0 18 0Z" clip-rule="evenodd"/></mask><g mask="url(#c)"><path stroke="url(#d)" d="M18 .5h53.764c-8.087 2.29-14.6 8.324-17.552 16.109-1.44 3.798-4.65 6.891-8.55 6.891H.5V18C.5 8.335 8.335.5 18 .5Z"/></g><path fill="#fff" d="M18.043 11.768h10.632v.912h-5.316v3.576l.636-.108v.876c-.192.036-.408.072-.636.12v1.128h-1.092v-.984a78.196 78.196 0 0 1-4.068.36l-.144-.96 1.032-.048v-3.96h-1.044v-.912Zm2.088 4.812c.78-.048 1.488-.108 2.136-.18v-.648H20.13v.828Zm0-1.644h2.136v-.732H20.13v.732Zm0-1.548h2.136v-.708H20.13v.708Zm-.672-5.856h7.848v3.636h-7.848V7.532Zm6.756 2.844V9.74H20.55v.636h5.664ZM20.55 8.96h5.664v-.6H20.55v.6Zm3.684 5.256h-.372v-.924h4.176v.864a5.509 5.509 0 0 1-1.08 2.244 8.66 8.66 0 0 0 1.764.936l-.588.948a9.455 9.455 0 0 1-1.896-1.152 7.769 7.769 0 0 1-1.92 1.152l-.588-.876c.684-.288 1.26-.612 1.74-.996-.612-.672-1.02-1.404-1.236-2.196Zm1.932 1.524a4.68 4.68 0 0 0 .852-1.524h-1.8c.192.552.504 1.068.948 1.524Zm13.896-8.484.552 1.008c-1.032.36-2.172.576-3.42.66v1.944h3.708v1.092H39.75v6.288h-1.116V11.96h-1.44v1.212c-.06 2.112-.528 3.792-1.404 5.052l-.804-.864c.684-1.008 1.056-2.4 1.104-4.188V7.988c1.476-.024 2.796-.276 3.972-.732Zm-10.02.852h2.136a7.028 7.028 0 0 0-.492-.888l1.176-.192c.144.324.3.684.444 1.08h2.22v1.056h-5.484V8.108Zm-.12 2.724h1.272a8.14 8.14 0 0 0-.54-1.176l.996-.372c.192.432.384.948.552 1.548h1.14c.192-.504.36-1.02.504-1.56l1.02.36c-.144.444-.312.84-.492 1.2h1.224v1.044h-2.22v1.08h2.016v1.032h-2.016v3.216c0 .72-.396 1.08-1.188 1.08h-.624l-.252-1.056c.18.048.348.072.504.072.288 0 .432-.12.432-.36v-2.952h-2.136v-1.032h2.136v-1.08h-2.328v-1.044Zm.912 3.684 1.032.216c-.288 1.212-.684 2.268-1.212 3.168l-.936-.6c.528-.864.9-1.8 1.116-2.784Zm3.756-.084c.312.768.564 1.464.744 2.088l-.96.36a18.056 18.056 0 0 0-.72-2.196l.936-.252Z"/><defs><linearGradient id="a" x1="85" x2="0" y1="24" y2="24" gradientUnits="userSpaceOnUse"><stop stop-color="#00D387"/><stop offset="0.713542" stop-color="#00C495"/><stop offset="0.932292" stop-color="#1AB18D"/><stop offset="1" stop-color="#19C79D"/></linearGradient><linearGradient id="b" x1="79" x2="0" y1="24" y2="24" gradientUnits="userSpaceOnUse"><stop stop-color="#fff"/><stop offset="1" stop-color="#fff" stop-opacity="0"/></linearGradient><linearGradient id="d" x1="39.5" x2="39.5" y1="0" y2="24" gradientUnits="userSpaceOnUse"><stop stop-color="#fff" stop-opacity="0"/><stop offset="1" stop-color="#fff"/></linearGradient></defs></svg>