<svg xmlns="http://www.w3.org/2000/svg" fill="none" viewBox="0 0 79 24"><path fill="url(#a)" fill-rule="evenodd" d="M18 0h61C67.885 0 58.399 6.975 54.68 16.786 53.197 20.698 49.844 24 45.66 24H0v-6C0 8.059 8.059 0 18 0Z" clip-rule="evenodd"/><mask id="c" width="79" height="24" x="0" y="0" maskUnits="userSpaceOnUse" style="mask-type:alpha"><path fill="url(#b)" fill-rule="evenodd" d="M18 0h61C67.885 0 58.399 6.975 54.68 16.786 53.197 20.698 49.844 24 45.66 24H0v-6C0 8.059 8.059 0 18 0Z" clip-rule="evenodd"/></mask><g mask="url(#c)"><path stroke="url(#d)" d="M18 .5h53.764c-8.087 2.29-14.6 8.324-17.552 16.109-1.44 3.798-4.65 6.891-8.55 6.891H.5V18C.5 8.335 8.335.5 18 .5Z"/></g><path fill="#fff" d="M18.043 11.768h10.632v.912h-5.316v3.576l.636-.108v.876c-.192.036-.408.072-.636.12v1.128h-1.092v-.984a78.196 78.196 0 0 1-4.068.36l-.144-.96 1.032-.048v-3.96h-1.044v-.912Zm2.088 4.812c.78-.048 1.488-.108 2.136-.18v-.648H20.13v.828Zm0-1.644h2.136v-.732H20.13v.732Zm0-1.548h2.136v-.708H20.13v.708Zm-.672-5.856h7.848v3.636h-7.848V7.532Zm6.756 2.844V9.74H20.55v.636h5.664ZM20.55 8.96h5.664v-.6H20.55v.6Zm3.684 5.256h-.372v-.924h4.176v.864a5.509 5.509 0 0 1-1.08 2.244 8.66 8.66 0 0 0 1.764.936l-.588.948a9.455 9.455 0 0 1-1.896-1.152 7.769 7.769 0 0 1-1.92 1.152l-.588-.876c.684-.288 1.26-.612 1.74-.996-.612-.672-1.02-1.404-1.236-2.196Zm1.932 1.524a4.68 4.68 0 0 0 .852-1.524h-1.8c.192.552.504 1.068.948 1.524Zm13.908-.564c-.432-.012-.78-.192-1.068-.528-.504-.588-.756-1.788-.756-3.612V9.74h-1.332a10.404 10.404 0 0 1-.312 2.328c.516.384 1.008.816 1.476 1.284l-.648.972a13.277 13.277 0 0 0-1.224-1.14 5.655 5.655 0 0 1-1.656 2.112l-.84-.744a4.87 4.87 0 0 0 1.584-2.1 9.79 9.79 0 0 0-1.056-.684l.612-.888c.264.144.516.312.768.48.096-.504.156-1.044.18-1.62H34.53V8.624h1.272V7.148h1.116v1.476h2.448v2.412c0 1.296.084 2.184.276 2.676.072.216.144.336.216.336.06 0 .12-.168.18-.492.048-.324.072-.708.084-1.164l.864.432c-.06 1.056-.192 1.728-.384 2.028-.144.216-.312.324-.528.324Zm-10.02-6.6h1.608V7.148h1.14v1.428h1.368V9.68h-1.368v1.56c.432-.12.864-.24 1.284-.384v1.092c-.432.12-.852.24-1.284.348v1.716c0 .78-.372 1.176-1.104 1.176h-1.14l-.264-1.092c.348.048.684.084 1.008.084.24 0 .36-.156.36-.444v-1.164c-.54.12-1.092.24-1.656.336l-.264-1.068a24.632 24.632 0 0 0 1.92-.324V9.68h-1.608V8.576Zm1.236 6.9.96.468c-.432.912-.924 1.704-1.488 2.376l-.936-.684a8.645 8.645 0 0 0 1.464-2.16Zm2.88.336c.24.684.456 1.416.648 2.208l-1.14.264a14.636 14.636 0 0 0-.576-2.256l1.068-.216Zm2.484-.168c.348.72.648 1.512.912 2.352l-1.128.264a12.016 12.016 0 0 0-.852-2.388l1.068-.228Zm2.304-.36c.72.888 1.26 1.668 1.644 2.328l-.948.672c-.396-.732-.936-1.536-1.62-2.412l.924-.588Z"/><defs><linearGradient id="a" x1="85" x2="0" y1="24" y2="24" gradientUnits="userSpaceOnUse"><stop stop-color="#E4581C"/><stop offset="0.713542" stop-color="#E4581C"/><stop offset="0.932292" stop-color="#CA3D00"/><stop offset="1" stop-color="#D05723"/></linearGradient><linearGradient id="b" x1="79" x2="0" y1="24" y2="24" gradientUnits="userSpaceOnUse"><stop stop-color="#fff"/><stop offset="1" stop-color="#fff" stop-opacity="0"/></linearGradient><linearGradient id="d" x1="39.5" x2="39.5" y1="0" y2="24" gradientUnits="userSpaceOnUse"><stop stop-color="#fff" stop-opacity="0"/><stop offset="1" stop-color="#fff"/></linearGradient></defs></svg>