<svg xmlns="http://www.w3.org/2000/svg" fill="none" viewBox="0 0 79 24"><path fill="url(#a)" fill-rule="evenodd" d="M18 0h61C67.885 0 58.399 6.975 54.68 16.786 53.197 20.698 49.844 24 45.66 24H0v-6C0 8.059 8.059 0 18 0Z" clip-rule="evenodd"/><mask id="c" width="79" height="24" x="0" y="0" maskUnits="userSpaceOnUse" style="mask-type:alpha"><path fill="url(#b)" fill-rule="evenodd" d="M18 0h61C67.885 0 58.399 6.975 54.68 16.786 53.197 20.698 49.844 24 45.66 24H0v-6C0 8.059 8.059 0 18 0Z" clip-rule="evenodd"/></mask><g mask="url(#c)"><path stroke="url(#d)" d="M18 .5h53.764c-8.087 2.29-14.6 8.324-17.552 16.109-1.44 3.798-4.65 6.891-8.55 6.891H.5V18C.5 8.335 8.335.5 18 .5Z"/></g><path fill="#fff" d="m28.063 7.256.552 1.008c-1.032.36-2.172.576-3.42.66v1.944h3.708v1.092H27.75v6.288h-1.116V11.96h-1.44v1.212c-.06 2.112-.528 3.792-1.404 5.052l-.804-.864c.684-1.008 1.056-2.4 1.104-4.188V7.988c1.476-.024 2.796-.276 3.972-.732Zm-10.02.852h2.136a7.028 7.028 0 0 0-.492-.888l1.176-.192c.144.324.3.684.444 1.08h2.22v1.056h-5.484V8.108Zm-.12 2.724h1.272a8.14 8.14 0 0 0-.54-1.176l.996-.372c.192.432.384.948.552 1.548h1.14c.192-.504.36-1.02.504-1.56l1.02.36c-.144.444-.312.84-.492 1.2h1.224v1.044h-2.22v1.08h2.016v1.032h-2.016v3.216c0 .72-.396 1.08-1.188 1.08h-.624l-.252-1.056c.18.048.348.072.504.072.288 0 .432-.12.432-.36v-2.952h-2.136v-1.032h2.136v-1.08h-2.328v-1.044Zm.912 3.684 1.032.216c-.288 1.212-.684 2.268-1.212 3.168l-.936-.6c.528-.864.9-1.8 1.116-2.784Zm3.756-.084c.312.768.564 1.464.744 2.088l-.96.36a18.056 18.056 0 0 0-.72-2.196l.936-.252Zm13.296-7.248c0 1.056-.036 1.944-.084 2.688.696 3.192 2.424 5.628 5.16 7.308l-.756.996c-2.304-1.536-3.912-3.6-4.824-6.168-.792 2.496-2.448 4.56-4.968 6.192l-.696-1.02c3.24-1.968 4.908-4.668 5.004-8.112 0-.804.012-1.428.012-1.884h1.152Z"/><defs><linearGradient id="a" x1="85" x2="0" y1="24" y2="24" gradientUnits="userSpaceOnUse"><stop stop-color="#D30098"/><stop offset="0.713542" stop-color="#9100C4"/><stop offset="0.932292" stop-color="#7A179D"/><stop offset="1" stop-color="#8618BA"/></linearGradient><linearGradient id="b" x1="79" x2="0" y1="24" y2="24" gradientUnits="userSpaceOnUse"><stop stop-color="#fff"/><stop offset="1" stop-color="#fff" stop-opacity="0"/></linearGradient><linearGradient id="d" x1="39.5" x2="39.5" y1="0" y2="24" gradientUnits="userSpaceOnUse"><stop stop-color="#fff" stop-opacity="0"/><stop offset="1" stop-color="#fff"/></linearGradient></defs></svg>