<svg xmlns="http://www.w3.org/2000/svg" fill="none" viewBox="0 0 79 24"><path fill="url(#a)" fill-rule="evenodd" d="M18 0h61C67.885 0 58.399 6.975 54.68 16.786 53.197 20.698 49.844 24 45.66 24H0v-6C0 8.059 8.059 0 18 0Z" clip-rule="evenodd"/><mask id="c" width="79" height="24" x="0" y="0" maskUnits="userSpaceOnUse" style="mask-type:alpha"><path fill="url(#b)" fill-rule="evenodd" d="M18 0h61C67.885 0 58.399 6.975 54.68 16.786 53.197 20.698 49.844 24 45.66 24H0v-6C0 8.059 8.059 0 18 0Z" clip-rule="evenodd"/></mask><g mask="url(#c)"><path stroke="url(#d)" d="M18 .5h53.764c-8.087 2.29-14.6 8.324-17.552 16.109-1.44 3.798-4.65 6.891-8.55 6.891H.5V18C.5 8.335 8.335.5 18 .5Z"/></g><path fill="#fff" d="M18.043 11.72h2.34v-4.5h1.152v4.5h7.152v1.104H24.87c.492 1.752 1.812 3.132 3.972 4.14l-.672 1.08c-2.436-1.284-3.9-3.024-4.404-5.22h-2.232v3.972a32.637 32.637 0 0 0 2.484-.756l.288 1.08c-1.2.408-2.496.756-3.876 1.068l-.348-1.056a.554.554 0 0 0 .3-.516v-3.792h-2.34V11.72Zm8.676-4.44.768.78c-.96 1.08-2.388 2.04-4.308 2.904l-.684-.912c1.896-.816 3.3-1.74 4.224-2.772Zm3.996-.06h1.104v1.236h2.076V7.244h1.104v1.212h.624v1.056h-.624v4.812h.684v1.056h-5.748v-1.056h.78V9.512h-.648V8.456h.648V7.22Zm1.104 7.104h2.076v-.936h-2.076v.936Zm2.076-4.812h-2.076v.948h2.076v-.948Zm-2.076 2.88h2.076v-.936h-2.076v.936Zm2.136 3.132a16.47 16.47 0 0 1 1.176 1.668c.672-1.056 1.02-2.352 1.032-3.912V7.544h4.248v9.432c0 .768-.396 1.152-1.176 1.152h-1.248l-.312-1.116c.432.024.828.048 1.2.048.264 0 .396-.168.396-.492v-2.184h-2.04c-.168 1.572-.648 2.88-1.44 3.936l-.816-.756-.684.48c-.3-.6-.708-1.248-1.212-1.956l.876-.564Zm-2.604.024.912.444a9.793 9.793 0 0 1-1.524 2.22l-.9-.648a8.687 8.687 0 0 0 1.512-2.016Zm5.952-4.056v1.848h1.968v-1.848h-1.968Zm1.968-1.032V8.624h-1.968v1.836h1.968Z"/><defs><linearGradient id="a" x1="85" x2="0" y1="24" y2="24" gradientUnits="userSpaceOnUse"><stop stop-color="#4B6CDB"/><stop offset="0.713542" stop-color="#3C63E8"/><stop offset="0.932292" stop-color="#234BD1"/><stop offset="1" stop-color="#3D62DC"/></linearGradient><linearGradient id="b" x1="79" x2="0" y1="24" y2="24" gradientUnits="userSpaceOnUse"><stop stop-color="#fff"/><stop offset="1" stop-color="#fff" stop-opacity="0"/></linearGradient><linearGradient id="d" x1="39.5" x2="39.5" y1="0" y2="24" gradientUnits="userSpaceOnUse"><stop stop-color="#fff" stop-opacity="0"/><stop offset="1" stop-color="#fff"/></linearGradient></defs></svg>