<svg xmlns="http://www.w3.org/2000/svg" width="14" height="12" fill="none" viewBox="0 0 14 12"><path fill="#434343" fill-rule="evenodd" d="M2 0a2 2 0 0 0-2 2v7.5a2 2 0 0 0 2 2h10a2 2 0 0 0 2-2V2a2 2 0 0 0-2-2H2Zm3.8 6.5h2v-1h-2v1ZM4.12 8.23h-.894V4.294L2.2 4.888l.006-.894 1.26-.738h.66L4.12 8.23Zm5.01-.57c.288.436.71.654 1.27.654s.982-.218 1.27-.654c.286-.44.43-1.078.43-1.914 0-.84-.144-1.478-.43-1.914-.288-.436-.71-.654-1.27-.654s-.982.218-1.27.654c-.286.436-.43 1.074-.43 1.914 0 .836.144 1.474.43 1.914Zm1.922-.516c-.133.292-.35.438-.652.438-.302 0-.521-.146-.657-.438-.133-.296-.199-.762-.199-1.398 0-.636.066-1.1.199-1.392.136-.296.355-.444.657-.444.302 0 .52.148.652.444.136.292.204.756.204 1.392 0 .636-.068 1.102-.204 1.398ZM6.3 2V1h1v1a.5.5 0 1 1-1 0Zm1 7.5a.5.5 0 1 0-1 0v1h1v-1Z" clip-rule="evenodd"/></svg>