<svg xmlns="http://www.w3.org/2000/svg" width="30" height="30" fill="none" viewBox="0 0 30 30"><path fill="#575757" d="M15.592 25.431c-4.893-.246-8.269-2.155-10.138-6.172-1.767-3.799-1.316-7.5 1.29-10.837 1.932-2.47 4.566-3.686 7.644-4.016a3.06 3.06 0 0 1 .398-.01c.906.015 1.424.377 1.459 1.017.034.632-.43 1.037-1.357 1.106-2.596.192-4.8 1.186-6.423 3.251-1.967 2.504-2.371 5.323-1.167 8.241 1.267 3.067 3.677 4.789 6.981 5.176 1.283.15 2.548.01 3.784-.44 1.075-.392 1.696-.22 1.95.412.284.707-.102 1.282-1.285 1.608-1.183.326-2.404.513-3.136.664Z"/><path fill="#575757" d="m12.787 10.995 5.029.561 1.157 4.681-4.176 2.751c-1.2-1.016-2.413-2.012-3.579-3.061-.164-.149-.217-.59-.128-.823.52-1.348 1.098-2.675 1.697-4.109Zm5.307-5.175c.679-.468 1.34-.392 1.972.046.902.625 1.806 1.25 2.678 1.914.935.712 1.256 1.655.9 2.846-1.142-.452-2.283-.895-3.413-1.362-.148-.06-.275-.224-.36-.37-.6-1.02-1.186-2.048-1.777-3.073Zm3.504 15.439c.087-.453.248-.807.204-1.136-.332-2.507 1.456-3.826 2.942-5.388.59.668.781 1.38.565 2.209-.371 1.425-1.045 2.687-1.976 3.825-.438.538-.957.697-1.735.49Z"/></svg>