<svg width="20" height="20" fill="none" xmlns="http://www.w3.org/2000/svg"><path fill="#fff" fill-opacity=".01" d="M0 0h20v20H0z"/><path fill-rule="evenodd" clip-rule="evenodd" d="M6.224 1.55C7.217.55 8.559 0 10 0c1.391 0 2.783.55 3.776 1.55a5.2 5.2 0 0 1 1.54 3.7c0 .5-.397.85-.894.85s-.894-.4-.894-.85c0-.9-.398-1.8-1.043-2.45-.646-.65-1.54-1-2.485-1-.944 0-1.839.35-2.484 1-.646.65-1.044 1.55-1.044 2.45 0 .5-.397.85-.894.85s-.895-.4-.895-.85c0-1.4.547-2.75 1.54-3.7ZM2.795 8.6c.497-.5 1.193-.75 1.888-.75h10.634c.695 0 1.391.3 1.888.75.497.5.795 1.15.795 1.85v6.95c0 .7-.298 1.35-.795 1.85-.497.5-1.193.75-1.888.75H4.683c-.695 0-1.391-.3-1.888-.75C2.298 18.75 2 18.1 2 17.4v-6.95c.05-.7.298-1.35.795-1.85Zm8.1 7.95v-2c.347-.2.596-.5.745-.85.149-.35.198-.75.05-1.1-.1-.35-.299-.7-.597-.9-.298-.25-.695-.35-1.093-.35s-.745.15-1.093.35c-.298.2-.497.55-.596.9-.1.35-.1.75.05 1.1.148.35.397.65.745.85v2c0 .25.099.45.248.6.15.15.398.25.646.25s.447-.1.646-.25a.83.83 0 0 0 .248-.6Z" fill="#4B6CDB"/></svg>