<svg width="20" height="20" fill="none" xmlns="http://www.w3.org/2000/svg"><g clip-path="url(#a)"><path d="M10.36 11.193a5.61 5.61 0 0 1-3.982-1.639 5.543 5.543 0 0 1-1.65-3.957c0-1.495.587-2.9 1.65-3.958A5.61 5.61 0 0 1 10.359 0a5.61 5.61 0 0 1 3.982 1.64 5.543 5.543 0 0 1 1.649 3.957 5.54 5.54 0 0 1-1.65 3.957 5.61 5.61 0 0 1-3.98 1.64Zm0-9.928c-2.403 0-4.358 1.943-4.358 4.332 0 2.388 1.955 4.33 4.357 4.33 2.403 0 4.358-1.942 4.358-4.33 0-2.389-1.955-4.332-4.358-4.332ZM1.636 20A.635.635 0 0 1 1 19.367c0-1.249.246-2.46.732-3.602a9.22 9.22 0 0 1 1.995-2.941 9.3 9.3 0 0 1 6.583-2.71c1.511 0 3.012.368 4.34 1.065a.63.63 0 0 1 .266.855.639.639 0 0 1-.86.264 8.091 8.091 0 0 0-3.746-.919c-4.432 0-8.037 3.584-8.037 7.988 0 .35-.285.633-.636.633Zm17.9-3.354h-5.61a.635.635 0 0 1-.637-.633c0-.35.285-.633.637-.633h5.61c.352 0 .637.283.637.633 0 .35-.285.633-.637.633Zm-2.805 2.788a.635.635 0 0 1-.637-.633v-5.576c0-.35.285-.633.637-.633.352 0 .637.283.637.633V18.8c0 .35-.285.633-.637.633Z" fill="#ADB2BD"/></g><defs><clipPath id="a"><path fill="#fff" d="M0 0h20v20H0z"/></clipPath></defs></svg>