<svg width="20" height="20" fill="none" xmlns="http://www.w3.org/2000/svg"><path fill="#fff" fill-opacity=".01" d="M0 0h20v20H0z"/><g fill="#ADB2BD"><path fill-rule="evenodd" clip-rule="evenodd" d="M11.953 5.562v-.083a3.485 3.485 0 1 0-6.97 0v.083a.747.747 0 0 1-1.494 0v-.083a4.979 4.979 0 0 1 9.958 0v.083a.747.747 0 0 1-1.494 0Z"/><path d="m12.092 19.927-.79.072a.317.317 0 0 1-.343-.343l.071-.79a1.39 1.39 0 0 1 .404-.862l5.988-5.988a1.074 1.074 0 0 1 1.52 1.517l-5.991 5.99a1.413 1.413 0 0 1-.859.404Z"/><path fill-rule="evenodd" clip-rule="evenodd" d="M4.32 9.047h8.297c1.008 0 1.826.817 1.826 1.825v.083a.747.747 0 1 0 1.493 0v-.083a3.32 3.32 0 0 0-3.319-3.319H4.319A3.32 3.32 0 0 0 1 10.873v5.808A3.32 3.32 0 0 0 4.32 20h5.06a.747.747 0 1 0 0-1.494H4.32a1.826 1.826 0 0 1-1.826-1.825v-5.809c0-1.008.817-1.825 1.825-1.825Z"/><path fill-rule="evenodd" clip-rule="evenodd" d="M9.298 13.97a1.659 1.659 0 1 0-1.66 0v1.881a.83.83 0 0 0 1.66 0V13.97Z"/></g></svg>