<svg xmlns="http://www.w3.org/2000/svg" width="20" height="20" fill="none"><g clip-path="url(#a)"><path fill="#4B6CDB" d="M20 19.17c0-4.074-2.88-7.535-6.856-8.754a5.664 5.664 0 0 0 2.57-4.733C15.714 2.548 13.15 0 10 0 6.849 0 4.286 2.548 4.286 5.68a5.664 5.664 0 0 0 2.57 4.734C2.88 11.634 0 15.094 0 19.17V20h20v-.829Z"/><g clip-path="url(#b)"><path fill="#fff" d="M11.217 12.917c1.29 0 2.117 1.034 2.117 2.426 0 1.08-.978 2.27-2.903 3.606a.756.756 0 0 1-.861 0c-1.926-1.337-2.903-2.526-2.903-3.606 0-1.392.827-2.426 2.116-2.426.466 0 .782.162 1.217.532.436-.37.752-.532 1.217-.532Z"/></g></g><defs><clipPath id="a"><path fill="#fff" d="M0 0h20v20H0z"/></clipPath><clipPath id="b"><path fill="#fff" d="M6 12h8v8H6z"/></clipPath></defs></svg>