<svg xmlns="http://www.w3.org/2000/svg" width="30" height="30" fill="none" viewBox="0 0 30 30"><path fill="#575757" fill-rule="evenodd" d="M15 18.357a1.2 1.2 0 0 1 1.2 1.2v2a1.2 1.2 0 1 1-2.4 0v-2a1.2 1.2 0 0 1 1.2-1.2Zm-.056-2.867a4.345 4.345 0 1 0 0-8.69 4.345 4.345 0 0 0 0 8.69Zm0 1.8a6.145 6.145 0 1 0 0-12.29 6.145 6.145 0 0 0 0 12.29Z" clip-rule="evenodd"/><path fill="#575757" d="M12.25 11.558h5.478"/><path fill="#575757" fill-rule="evenodd" d="M14.953 15.493c1.5 0 3-.5 3-.5l5.156 3.413A2 2 0 0 1 24 20.07V24a1 1 0 0 1-1 1h-5.265c-.13-.274-.259-.602-.259-.83 0-.305.234-.725.39-.97H22.2v-3.13a.2.2 0 0 0-.09-.166l-4.472-2.957-.232.053c-.63.14-1.522.293-2.453.293-.931 0-1.823-.153-2.453-.293a13.69 13.69 0 0 1-.232-.053l-4.379 2.957a.2.2 0 0 0-.089.166v3.13h4.335c.155.245.389.665.389.97 0 .228-.13.556-.259.83H7a1 1 0 0 1-1-1v-3.93a2 2 0 0 1 .89-1.664l5.063-3.413s1.5.5 3 .5Z" clip-rule="evenodd"/></svg>