<svg xmlns="http://www.w3.org/2000/svg" width="32" height="32" fill="none" viewBox="0 0 32 32"><mask id="c" fill="#fff"><path fill-rule="evenodd" d="M16.37 18.313a6.332 6.332 0 1 0 0-12.665 6.332 6.332 0 0 0 0 12.665Zm1.002 1.088a7.458 7.458 0 0 0 4.134-1.97l.63.573c.855.781 1.71 1.562 2.627 2.262.946.724 1.37 1.548 1.313 2.687a4.37 4.37 0 0 1-.037.812c-.002.23.002.462.007.694.006.36.013.72-.003 1.077-.056 1.235-.542 1.73-1.79 1.743l-.096.001a5.848 5.848 0 0 1-.209.005l-.63.003c-1.477.01-2.953.007-4.43.004h-.585l-.059-.001a2429.37 2429.37 0 0 0-3.818 0h-.058l-.586.001c-1.476.003-2.952.007-4.428-.004l-.631-.003c-.072 0-.142-.002-.21-.005h-.095c-1.248-.014-1.734-.509-1.79-1.744-.016-.358-.01-.717-.003-1.077.004-.232.009-.463.007-.694a4.371 4.371 0 0 1-.037-.812c-.058-1.139.367-1.963 1.313-2.687.917-.7 1.772-1.48 2.627-2.261.223-.205.447-.409.671-.611a7.46 7.46 0 0 0 4.093 1.995c-.018.712-.013 1.426-.008 2.159.002.347.005.697.005 1.054.003.297.212.496.499.603.636.193 1.574-.008 1.58-.603 0-.357.003-.707.005-1.054.005-.729.01-1.44-.008-2.147Z" clip-rule="evenodd"/></mask><path fill="url(#a)" fill-rule="evenodd" d="M16.37 18.313a6.332 6.332 0 1 0 0-12.665 6.332 6.332 0 0 0 0 12.665Zm1.002 1.088a7.458 7.458 0 0 0 4.134-1.97l.63.573c.855.781 1.71 1.562 2.627 2.262.946.724 1.37 1.548 1.313 2.687a4.37 4.37 0 0 1-.037.812c-.002.23.002.462.007.694.006.36.013.72-.003 1.077-.056 1.235-.542 1.73-1.79 1.743l-.096.001a5.848 5.848 0 0 1-.209.005l-.63.003c-1.477.01-2.953.007-4.43.004h-.585l-.059-.001a2429.37 2429.37 0 0 0-3.818 0h-.058l-.586.001c-1.476.003-2.952.007-4.428-.004l-.631-.003c-.072 0-.142-.002-.21-.005h-.095c-1.248-.014-1.734-.509-1.79-1.744-.016-.358-.01-.717-.003-1.077.004-.232.009-.463.007-.694a4.371 4.371 0 0 1-.037-.812c-.058-1.139.367-1.963 1.313-2.687.917-.7 1.772-1.48 2.627-2.261.223-.205.447-.409.671-.611a7.46 7.46 0 0 0 4.093 1.995c-.018.712-.013 1.426-.008 2.159.002.347.005.697.005 1.054.003.297.212.496.499.603.636.193 1.574-.008 1.58-.603 0-.357.003-.707.005-1.054.005-.729.01-1.44-.008-2.147Z" clip-rule="evenodd"/><path fill="url(#b)" d="m21.506 17.431.161-.178-.164-.148-.161.152.165.174Zm-4.134 1.97-.031-.238-.214.028.005.216.24-.006Zm4.764-1.397-.162.178.004.003.158-.18Zm0 0 .161-.178-.003-.002-.158.18Zm0 0 .163-.176-.002-.001-.16.177Zm0 0-.162.178.009.007.153-.184Zm0 0 .162-.177-.008-.007-.154.184Zm2.627 2.262.145-.19-.145.19Zm1.313 2.687-.24-.012v.024l.24-.012Zm-.037.812-.238-.032-.002.015v.015l.24.002Zm.007.694-.24.005v.004l.24-.009Zm0 0 .24-.004v-.005l-.24.01Zm-.003 1.077.24.011-.24-.01Zm-1.79 1.743-.002-.24.002.24Zm-.096.001-.002-.24h-.007l.01.24Zm-.209.005.001.24v-.24Zm-.63.003-.002-.24.001.24Zm-4.43.004.001-.24v.24Zm-.585 0v-.24.24Zm-.059-.001v.24-.24Zm-1.909-.002v-.24.24Zm-1.909.002v.24-.24Zm-.058 0v-.24.24Zm-.586.001v-.24.24Zm-4.428-.004.001-.24-.001.24Zm-.631-.003-.002.24.002-.24Zm-.21-.005.01-.24h-.007l-.003.24Zm-.095 0 .003-.24-.003.24Zm-1.79-1.744-.24.011.24-.01Zm-.003-1.077.24.005-.24-.005Zm.007-.694.24-.002v-.015l-.002-.015-.238.032Zm-.037-.812.24.012v-.024l-.24.012Zm1.313-2.687-.145-.19.145.19Zm2.627-2.261-.161-.179-.001.001.162.177Zm0 0 .16.178.002-.002-.162-.177Zm0 0-.16-.179-.003.002.163.176Zm0 0 .16.178.002-.002-.162-.177Zm.671-.611.166-.174-.16-.154-.166.15.16.178Zm4.093 1.995.24.006.005-.213-.21-.03-.035.237Zm-.008 2.159h.24v-.002l-.24.002Zm0 0h-.24v.001l.24-.001Zm.005 1.054h-.24v.002l.24-.002Zm.499.603-.084.225.007.003.007.002.07-.23Zm1.58-.603.24.003v-.003h-.24Zm.005-1.054.24.001v-.001h-.24Zm0 0-.24-.002v.002h.24Zm5.082-9.567a6.092 6.092 0 0 1-6.093 6.092v.48a6.572 6.572 0 0 0 6.573-6.572h-.48Zm-6.093-6.093a6.092 6.092 0 0 1 6.093 6.093h.48a6.572 6.572 0 0 0-6.573-6.573v.48Zm-6.092 6.093a6.092 6.092 0 0 1 6.092-6.093v-.48a6.572 6.572 0 0 0-6.572 6.573h.48Zm6.092 6.092a6.092 6.092 0 0 1-6.092-6.092h-.48a6.572 6.572 0 0 0 6.572 6.572v-.48Zm4.973-.816a7.218 7.218 0 0 1-4.001 1.906l.063.476a7.699 7.699 0 0 0 4.267-2.033l-.33-.35Zm.956.57-.63-.574-.322.357c.21.19.419.38.628.572l.324-.355Zm-.004-.003-.316.361.316-.361Zm.003.003-.322.355.322-.355Zm.002 0-.325.354.325-.353Zm-.01-.007-.306.369.307-.369Zm2.62 2.255c-.907-.692-1.755-1.466-2.61-2.248l-.325.355c.854.78 1.717 1.567 2.643 2.275l.291-.382Zm1.407 2.89c.03-.604-.067-1.136-.305-1.618-.238-.48-.608-.894-1.103-1.272l-.291.382c.452.345.767.705.964 1.103.196.397.282.846.255 1.38l.48.025Zm-.04.832c.04-.297.053-.582.04-.856l-.48.024c.013.242.002.497-.035.768l.476.064Zm.01.657c-.005-.232-.009-.46-.007-.687l-.48-.004c-.002.235.003.47.007.7l.48-.009Zm0-.004-.48.018.48-.018Zm-.003 1.097c.016-.367.01-.734.003-1.092l-.48.009c.007.36.013.713-.002 1.062l.48.021Zm-2.027 1.972c.648-.006 1.157-.138 1.507-.482.35-.343.491-.85.52-1.49l-.48-.021c-.026.595-.156.953-.376 1.169-.22.215-.577.338-1.176.344l.005.48Zm-.096.001h.096l-.006-.48h-.095l.005.48Zm-.21.005c.074 0 .147-.002.217-.005l-.02-.48a5.834 5.834 0 0 1-.2.005l.003.48Zm-.632.003.631-.003-.002-.48-.63.003.001.48Zm-4.43.004c1.476.003 2.953.007 4.43-.004l-.003-.48c-1.475.01-2.95.007-4.426.004l-.001.48Zm-.585 0h.585l.001-.48h-.585l-.001.48Zm-.059-.001h.059v-.48h-.058v.48Zm-1.909-.002 1.91.002v-.48l-1.91-.002v.48Zm-1.908.002 1.909-.002v-.48l-1.91.002v.48Zm-.059 0h.059v-.48h-.06l.001.48Zm-.585.001h.585v-.48h-.586v.48Zm-4.431-.004c1.477.01 2.955.007 4.43.004v-.48c-1.476.003-2.952.007-4.427-.004l-.003.48Zm-.63-.003.63.003.003-.48-.63-.003-.004.48Zm-.218-.005a6.1 6.1 0 0 0 .217.005l.003-.48a5.83 5.83 0 0 1-.2-.005l-.02.48Zm-.089 0h.096l.005-.48h-.095l-.006.48Zm-2.027-1.973c.029.64.17 1.147.52 1.49.35.344.86.476 1.507.482l.005-.48c-.6-.006-.957-.129-1.176-.344-.22-.216-.35-.574-.377-1.17l-.48.022Zm-.003-1.092c-.007.358-.014.725.003 1.092l.48-.021c-.016-.35-.01-.701-.003-1.062l-.48-.01Zm.007-.688c.002.227-.002.456-.007.688l.48.009c.004-.231.009-.466.007-.7l-.48.003Zm-.037-.826c-.014.274-.001.559.04.856l.475-.064a4.131 4.131 0 0 1-.035-.768l-.48-.024Zm1.408-2.866c-.495.378-.865.792-1.103 1.272-.238.482-.335 1.014-.305 1.618l.48-.024c-.027-.535.059-.984.255-1.38.197-.399.512-.759.964-1.104l-.291-.382Zm2.61-2.248c-.856.782-1.704 1.556-2.61 2.248l.291.382c.926-.708 1.789-1.496 2.642-2.275l-.323-.355Zm0 0 .322.356-.321-.357Zm0 0 .324.354-.325-.353Zm.001-.001.321.357-.32-.357Zm.672-.61a99.9 99.9 0 0 0-.673.611l.324.354.67-.61-.321-.356Zm4.287 1.936a7.22 7.22 0 0 1-3.96-1.932l-.332.347a7.7 7.7 0 0 0 4.224 2.06l.068-.475Zm.198 2.394a69.16 69.16 0 0 1 .008-2.15l-.48-.012c-.018.715-.013 1.433-.008 2.165l.48-.003Zm0 .002h-.48.48Zm0 0h-.48.48Zm0 0h-.48.48Zm.005 1.054c0-.358-.003-.71-.005-1.056l-.48.003c.002.347.005.697.005 1.053h.48Zm.343.379c-.238-.09-.342-.224-.343-.382l-.48.005c.004.436.319.7.655.826l.168-.45Zm1.256-.382c-.001.143-.11.283-.387.371a1.58 1.58 0 0 1-.884.006l-.139.46c.364.11.807.107 1.17-.008.352-.113.715-.371.72-.823l-.48-.006Zm.005-1.053c-.002.347-.005.698-.005 1.056h.48c0-.356.003-.706.005-1.053l-.48-.003Zm0 .002h.48-.48Zm0 0h.48-.48Zm0 0h.48-.48Zm-.008-2.141c.017.703.013 1.41.008 2.139l.48.003c.005-.728.01-1.442-.008-2.154l-.48.012Z" mask="url(#c)"/><path fill="#fff" d="M13.65 13.648h5.647a2.824 2.824 0 1 1-5.647 0Z"/><defs><linearGradient id="a" x1="16.3354" x2="16.3354" y1="5.64844" y2="27.2954" gradientUnits="userSpaceOnUse"><stop stop-color="#83A1ED"/><stop offset="1" stop-color="#4B6CDB"/></linearGradient><linearGradient id="b" x1="16.3354" x2="16.3354" y1="5.64844" y2="27.2954" gradientUnits="userSpaceOnUse"><stop stop-color="#7B89D1"/><stop offset="1" stop-color="#6279EE"/></linearGradient></defs></svg>