<svg xmlns="http://www.w3.org/2000/svg" width="191" height="8" fill="none" viewBox="0 0 191 8"><path fill="url(#a)" d="M1 1h188.499v6H1V1Z"/><path stroke="#fff" stroke-opacity="0.41" d="M1 .5H.5v7h189.499v-7H1Z"/><mask id="b" width="191" height="6" x="0" y="1" maskUnits="userSpaceOnUse" style="mask-type:alpha"><path fill="#fff" d="M0 1h190.499v6H0V1Z"/></mask><g mask="url(#b)"><path fill="url(#c)" d="M0 1h190.499v6H0V1Z"/><path stroke="#fff" stroke-opacity="0.41" d="M0 .5h-.5v7h191.499v-7H0Z"/><path fill="#D9D9D9" d="m34.841-40 1.732 1-49.5 85.737-1.732-1 24.75-42.869L34.841-40Zm4.616 0 1.732 1-49.5 85.737-1.732-1L39.457-40Zm4.616 0 1.732 1-49.5 85.737-1.732-1L44.073-40Zm4.616 0 1.732 1-49.5 85.737-1.732-1L48.689-40Zm4.616 0 1.732 1-49.5 85.737-1.732-1L53.305-40Zm4.615 0 1.733 1-49.5 85.737-1.732-1L57.92-40Zm4.617 0 1.732 1-49.5 85.737-1.732-1L62.537-40Zm4.616 0 1.732 1-49.5 85.737-1.732-1L67.153-40Zm4.616 0 1.732 1L24 46.737l-1.732-1L71.769-40Zm4.616 0 1.732 1-49.5 85.737-1.732-1L76.385-40ZM81-40l1.733 1-49.5 85.737-1.732-1L81-40Zm4.617 0 1.732 1-49.5 85.737-1.732-1L85.617-40Zm4.616 0 1.732 1-49.5 85.737-1.732-1L90.233-40Zm4.616 0 1.732 1-49.5 85.737-1.732-1L94.849-40Zm4.616 0 1.732 1-49.5 85.737-1.732-1L99.465-40Zm4.616 0 1.732 1-49.5 85.737-1.733-1L104.082-40Zm4.616 0 1.732 1-49.5 85.737-1.733-1L108.697-40Zm4.616 0 1.732 1-49.5 85.737-1.733-1L113.314-40Zm4.616 0 1.732 1-49.5 85.737-1.733-1L117.93-40Zm4.615 0 1.733 1-49.5 85.737-1.733-1L122.544-40Zm4.616 0 1.733 1-49.5 85.737-1.733-1L127.16-40Zm4.616 0 1.732 1-49.5 85.737-1.732-1L131.776-40Zm4.616 0 1.732 1-49.5 85.737-1.732-1L136.392-40Zm4.616 0 1.732 1-49.5 85.737-1.732-1L141.008-40Zm4.616 0 1.732 1-49.5 85.737-1.732-1L145.624-40Zm4.616 0 1.732 1-49.5 85.737-1.732-1L150.24-40Zm4.616 0 1.732 1-49.5 85.737-1.732-1L154.856-40Zm4.616 0 1.732 1-49.5 85.737-1.732-1L159.472-40Zm4.616 0 1.732 1-49.5 85.737-1.732-1L164.088-40Zm4.616 0 1.732 1-49.5 85.737-1.732-1L168.704-40Zm4.616 0 1.732 1-49.5 85.737-1.732-1L173.32-40Zm4.616 0 1.732 1-49.5 85.737-1.732-1L177.936-40Zm4.616 0 1.732 1-49.5 85.737-1.732-1L182.552-40Zm4.616 0 1.732 1-49.5 85.737-1.732-1L187.168-40Zm4.616 0 1.732 1-49.5 85.737-1.732-1L191.784-40Zm4.616 0 1.732 1-49.5 85.737-1.732-1L196.4-40Zm4.616 0 1.732 1-49.5 85.737-1.732-1L201.016-40Zm4.616 0 1.732 1-49.5 85.737-1.732-1L205.632-40Zm4.616 0 1.732 1-49.5 85.737-1.732-1L210.248-40Zm4.616 0 1.732 1-49.5 85.737-1.732-1L214.864-40ZM29.842-40l1.732 1-49.5 85.737-1.732-1L5.092 2.868 29.842-40ZM1.283-40l1.732 1-49.5 85.736-1.732-1L1.283-40ZM5.9-40l1.731 1-49.5 85.736-1.732-1L5.9-40Zm4.615 0 1.732 1-49.5 85.736-1.732-1L10.515-40Zm4.616 0 1.732 1-49.5 85.736-1.732-1L15.131-40Zm4.616 0 1.732 1-49.5 85.736-1.732-1L19.747-40Zm4.616 0 1.732 1-49.5 85.736-1.732-1L24.363-40Z"/></g><defs><linearGradient id="a" x1="95.4982" x2="95.4982" y1="1" y2="7" gradientUnits="userSpaceOnUse"><stop stop-color="#fff"/><stop offset="1" stop-color="#CADFFF"/></linearGradient><linearGradient id="c" x1="95.499" x2="95.499" y1="1" y2="7" gradientUnits="userSpaceOnUse"><stop stop-color="#fff"/><stop offset="1" stop-color="#CADFFF"/></linearGradient></defs></svg>