<svg xmlns="http://www.w3.org/2000/svg" fill="none" viewBox="0 0 24 24"><path fill="#fff" fill-opacity="0.01" d="M0 0h24v24H0z"/><path stroke="#fff" stroke-linecap="round" stroke-width="1.8" d="M21.717 7.815C20.049 3.676 16.142 1 11.76 1 5.827 1 1 5.936 1 12.001 1 18.066 5.827 23 11.761 23c5.412 0 10-4.13 10.681-9.608"/><path stroke="#fff" stroke-linecap="round" stroke-width="1.8" d="m18 6.966 2.945.99a.864.864 0 0 0 .714-.076.987.987 0 0 0 .452-.603L23 4M8.643 7.611l3.077 2.829m3.362-2.694-3.249 2.694m-.252.045v6.708m3.701-6.089H8.16m7.122 3.292H8.16"/></svg>