<svg width="40" height="40" viewBox="0 0 40 40" fill="none" xmlns="http://www.w3.org/2000/svg">
<mask id="mask0_4900_27247" style="mask-type:alpha" maskUnits="userSpaceOnUse" x="7" y="3" width="23" height="8">
<rect x="7" y="3" width="23" height="8" fill="#D9D9D9"/>
</mask>
<g mask="url(#mask0_4900_27247)">
<rect x="8.1" y="6.1" width="11.8" height="11.8" rx="1.9" fill="url(#paint0_linear_4900_27247)" stroke="#EBF4FF" stroke-width="0.2"/>
<rect x="18.8593" y="4.13594" width="11.8" height="11.8" rx="1.9" transform="rotate(29 18.8593 4.13594)" fill="url(#paint1_linear_4900_27247)" stroke="#A7CBFA" stroke-width="0.2"/>
</g>
<g filter="url(#filter0_f_4900_27247)">
<ellipse cx="22" cy="31.5" rx="10" ry="3.5" fill="#5787F8" fill-opacity="0.3"/>
</g>
<path d="M8.1 11.1H32C33.6016 11.1 34.9 12.3984 34.9 14V27C34.9 29.1539 33.1539 30.9 31 30.9H8.1V11.1Z" fill="url(#paint2_linear_4900_27247)" stroke="#A7CBFA" stroke-width="0.2"/>
<g filter="url(#filter1_b_4900_27247)">
<circle cx="11.4805" cy="24.5195" r="8" fill="#A3B5FE" fill-opacity="0.6"/>
<circle cx="11.4805" cy="24.5195" r="7.76562" stroke="url(#paint3_linear_4900_27247)" stroke-width="0.46875"/>
</g>
<g filter="url(#filter2_d_4900_27247)">
<path d="M10.7002 26.6618H9.04803C8.89393 26.6503 8.77552 26.5853 8.69278 26.4668C8.61004 26.3483 8.56008 26.2168 8.54297 26.0723C8.56008 25.9278 8.61004 25.8093 8.69278 25.7169C8.77552 25.6244 8.89393 25.5724 9.04803 25.5609H10.7002V25.0147L9.04803 25.006C8.89393 24.9945 8.77552 24.9396 8.69278 24.8413C8.61004 24.743 8.56008 24.6188 8.54297 24.4685C8.56008 24.324 8.61004 24.2055 8.69278 24.1131C8.77552 24.0206 8.89393 23.9686 9.04803 23.957H10.2807L9.13362 21.9111C9.07655 21.8417 9.02235 21.7536 8.971 21.6467C8.91961 21.5398 8.89679 21.4227 8.9025 21.2956C8.93104 21.1337 8.98811 21.0022 9.0737 20.9011C9.1593 20.8 9.3191 20.7349 9.55308 20.7061C9.69007 20.7176 9.81278 20.7653 9.9212 20.8491C10.0297 20.9329 10.1181 21.0239 10.1866 21.1222L11.4878 23.5322L12.9173 21.1048C12.9858 21.0066 13.0743 20.9199 13.1827 20.8447C13.2912 20.7696 13.4139 20.7234 13.5508 20.7061C13.6364 20.7118 13.7149 20.7234 13.7863 20.7407C13.8576 20.7581 13.9203 20.7869 13.9746 20.8274C14.0288 20.8679 14.0744 20.9257 14.1115 21.0008C14.1486 21.0759 14.1758 21.1742 14.1929 21.2956C14.1929 21.4632 14.1358 21.6221 14.0217 21.7724L12.6948 23.957H13.9532C14.1016 23.9686 14.2185 24.0206 14.3041 24.1131C14.3897 24.2055 14.4383 24.324 14.4497 24.4685C14.4383 24.6188 14.3884 24.7459 14.2999 24.85C14.2114 24.954 14.093 25.0118 13.9446 25.0233L12.3096 25.032V25.5609H13.9532C14.1016 25.5724 14.2185 25.6302 14.3041 25.7342C14.3897 25.8382 14.4383 25.9625 14.4497 26.107C14.4383 26.2573 14.3897 26.383 14.3041 26.4841C14.2185 26.5853 14.1016 26.6416 13.9532 26.6532L12.3096 26.6445V27.5635C12.2867 28.0547 12.0214 28.3004 11.5134 28.3004C11.2624 28.3004 11.0669 28.2397 10.9271 28.1183C10.7872 27.9969 10.7116 27.812 10.7002 27.5635V26.6618Z" fill="url(#paint4_linear_4900_27247)"/>
</g>
<path d="M23.5 21C23.5 19.067 25.067 17.5 27 17.5H34.5V24.5H27C25.067 24.5 23.5 22.933 23.5 21Z" stroke="white"/>
<circle cx="27" cy="21" r="1" fill="white"/>
<defs>
<filter id="filter0_f_4900_27247" x="8" y="24" width="28" height="15" filterUnits="userSpaceOnUse" color-interpolation-filters="sRGB">
<feFlood flood-opacity="0" result="BackgroundImageFix"/>
<feBlend mode="normal" in="SourceGraphic" in2="BackgroundImageFix" result="shape"/>
<feGaussianBlur stdDeviation="2" result="effect1_foregroundBlur_4900_27247"/>
</filter>
<filter id="filter1_b_4900_27247" x="1.60547" y="14.6445" width="19.75" height="19.75" filterUnits="userSpaceOnUse" color-interpolation-filters="sRGB">
<feFlood flood-opacity="0" result="BackgroundImageFix"/>
<feGaussianBlur in="BackgroundImageFix" stdDeviation="0.9375"/>
<feComposite in2="SourceAlpha" operator="in" result="effect1_backgroundBlur_4900_27247"/>
<feBlend mode="normal" in="SourceGraphic" in2="effect1_backgroundBlur_4900_27247" result="shape"/>
</filter>
<filter id="filter2_d_4900_27247" x="6.85534" y="19.8622" width="9.28199" height="10.9696" filterUnits="userSpaceOnUse" color-interpolation-filters="sRGB">
<feFlood flood-opacity="0" result="BackgroundImageFix"/>
<feColorMatrix in="SourceAlpha" type="matrix" values="0 0 0 0 0 0 0 0 0 0 0 0 0 0 0 0 0 0 127 0" result="hardAlpha"/>
<feOffset dy="0.843813"/>
<feGaussianBlur stdDeviation="0.843813"/>
<feComposite in2="hardAlpha" operator="out"/>
<feColorMatrix type="matrix" values="0 0 0 0 0 0 0 0 0 0 0 0 0 0 0 0 0 0 0.14 0"/>
<feBlend mode="normal" in2="BackgroundImageFix" result="effect1_dropShadow_4900_27247"/>
<feBlend mode="normal" in="SourceGraphic" in2="effect1_dropShadow_4900_27247" result="shape"/>
</filter>
<linearGradient id="paint0_linear_4900_27247" x1="14" y1="6" x2="14" y2="18" gradientUnits="userSpaceOnUse">
<stop stop-color="#A7CBFA"/>
<stop offset="1" stop-color="#548FF7"/>
</linearGradient>
<linearGradient id="paint1_linear_4900_27247" x1="24.8203" y1="4" x2="24.8203" y2="16" gradientUnits="userSpaceOnUse">
<stop stop-color="#5787F8"/>
<stop offset="1" stop-color="#548FF7"/>
</linearGradient>
<linearGradient id="paint2_linear_4900_27247" x1="21.5" y1="11" x2="21.5" y2="31" gradientUnits="userSpaceOnUse">
<stop stop-color="#97BFFF" stop-opacity="0.77"/>
<stop offset="0.0597341" stop-color="#2C67F6" stop-opacity="0.77"/>
<stop offset="0.736546" stop-color="#427FF7"/>
<stop offset="1" stop-color="#76ABF8"/>
</linearGradient>
<linearGradient id="paint3_linear_4900_27247" x1="6.82542" y1="21.4607" x2="18.0026" y2="27.7871" gradientUnits="userSpaceOnUse">
<stop stop-color="#C7E4FF"/>
<stop offset="0.890625" stop-color="#F7FBFF" stop-opacity="0.65"/>
<stop offset="1" stop-color="white" stop-opacity="0.96"/>
</linearGradient>
<linearGradient id="paint4_linear_4900_27247" x1="11.4963" y1="20.7061" x2="11.4963" y2="28.3004" gradientUnits="userSpaceOnUse">
<stop stop-color="white"/>
<stop offset="1" stop-color="#D3E2FC"/>
</linearGradient>
</defs>
</svg>
