<svg xmlns="http://www.w3.org/2000/svg" fill="currentColor" class="icon" viewBox="0 0 1024 1024"><path d="m900.767 354.88-142.27 142.27c-15.627 15.628-40.941 15.628-56.568 0s-15.627-40.94 0-56.568l142.27-142.27c15.627-15.627 40.941-15.627 56.568 0s15.627 40.942 0 56.569z"/><path d="M826.804 823.693c-67.175 67.175-152.099 110.379-245.72 124.945-45.042 7-90.721 7.142-135.693.354a442.932 442.932 0 0 1-130.745-41.083c-19.798-9.758-27.86-33.8-18.101-53.599 9.758-19.799 33.8-27.86 53.598-18.102 140.502 69.51 309.218 41.79 420.092-69.084S908.9 487.464 839.32 347.032c-9.758-19.799-1.697-43.84 18.102-53.599 19.799-9.758 43.84-1.697 53.598 18.102a442.932 442.932 0 0 1 41.083 130.744c6.86 45.043 6.718 90.722-.353 135.694-14.567 93.621-57.77 178.545-124.946 245.72zM335.082 590.206l-142.2 142.2c-15.626 15.626-40.94 15.626-56.568 0s-15.627-40.942 0-56.57l142.27-142.27c15.627-15.626 40.942-15.626 56.569 0s15.556 41.013-.071 56.64z"/><path d="M732.83 186.943c-11.81 11.809-30.265 15.415-46.033 7.566-140.36-69.509-309.218-41.79-420.092 69.084S128.04 543.254 197.62 683.686c9.758 19.799 1.697 43.84-18.102 53.598-19.799 9.758-43.84 1.697-53.598-18.102a442.932 442.932 0 0 1-41.083-130.744c-6.86-45.042-6.718-90.722.353-135.694 14.637-93.55 57.771-178.544 124.946-245.72S362.235 96.646 455.856 82.08c45.042-7 90.722-7.142 135.694-.353a442.932 442.932 0 0 1 130.744 41.082c19.799 9.759 27.86 33.8 18.101 53.6-1.98 4.1-4.596 7.565-7.566 10.535z"/></svg>