<svg xmlns="http://www.w3.org/2000/svg" width="40" height="19" fill="none" viewBox="0 0 40 19"><rect width="40" height="18" y="1" fill="url(#a)" rx="9"/><rect width="40" height="18" fill="url(#b)" rx="9"/><rect width="39.6" height="17.6" x="0.2" y="0.2" stroke="url(#c)" stroke-opacity="0.7" stroke-width="0.4" rx="8.8"/><path fill="#85551D" d="M15.1 4.74c.16.35.31.74.46 1.17h3.59v.89h-4.61c-.58.92-1.09 1.61-1.55 2.05 1.32-.08 2.64-.19 3.94-.34-.22-.3-.45-.6-.69-.9l.74-.46c.84 1 1.48 1.86 1.93 2.6l-.79.55c-.2-.34-.41-.68-.64-1.02-1.76.18-3.66.33-5.72.44l-.22-.85a.71.71 0 0 0 .21-.08c.47-.26 1.07-.92 1.81-1.99h-2.71v-.89h3.75c-.16-.36-.33-.7-.52-1.01l1.02-.16Zm-1.96 5.29h.92c-.08 1.16-.31 2-.7 2.53-.43.56-1.15 1.04-2.15 1.46l-.59-.75c.88-.32 1.5-.7 1.88-1.14.36-.42.58-1.12.64-2.1Zm5 3.84h-1.6c-.75 0-1.12-.39-1.12-1.15V9.91h.94v2.65c0 .28.14.42.44.42h1.09c.14 0 .27-.05.39-.15.12-.11.21-.56.26-1.36l.87.28c-.1 1.04-.25 1.65-.43 1.83-.2.18-.48.27-.84.29Zm7.59-9.12.94.13c-.02.27-.05.53-.07.79h2.39v.86H26.5c-.04.24-.07.46-.1.68h1.97v5.68h.91v.86h-6.61v-.86h.99V7.21h1.81c.04-.23.07-.46.09-.68H23.1v-.86h2.56c.02-.31.05-.62.07-.92Zm-1.16 8.14h2.89v-.67h-2.89v.67Zm0-1.42h2.89v-.64h-2.89v.64Zm0-1.4h2.89v-.63h-2.89v.63Zm0-1.38h2.89v-.63h-2.89v.63Zm-3.21-.14c-.3.42-.62.83-.96 1.22l-.31-1.01c.93-1.14 1.61-2.48 2.04-4l.86.4c-.19.64-.43 1.25-.71 1.83v7.05h-.92V8.55Z"/><defs><linearGradient id="a" x1="-0.617284" x2="40" y1="10" y2="10" gradientUnits="userSpaceOnUse"><stop stop-color="#D7844E"/><stop offset="0.220187" stop-color="#FFECCB"/><stop offset="0.508293" stop-color="#D7844E"/><stop offset="0.730636" stop-color="#FFECCB"/><stop offset="1" stop-color="#D7844E"/></linearGradient><linearGradient id="b" x1="20" x2="20" y1="0" y2="18" gradientUnits="userSpaceOnUse"><stop stop-color="#FFE5AC"/><stop offset="1" stop-color="#FFB591"/></linearGradient><linearGradient id="c" x1="20" x2="20" y1="0" y2="18" gradientUnits="userSpaceOnUse"><stop stop-color="#fff"/><stop offset="0.505208" stop-color="#fff" stop-opacity="0"/><stop offset="1" stop-color="#fff"/></linearGradient></defs></svg>