<svg xmlns="http://www.w3.org/2000/svg" fill="none" viewBox="0 0 13 12"><path fill="#9BA1AE" fill-rule="evenodd" d="M6.466 1.97 5.345 3.987a1.933 1.933 0 0 1-1.318.957l-2.262.443 1.57 1.689c.387.417.571.984.503 1.549l-.278 2.289 2.091-.972a1.933 1.933 0 0 1 1.629 0l2.09.972-.277-2.29a1.933 1.933 0 0 1 .504-1.548l1.57-1.689-2.263-.443a1.933 1.933 0 0 1-1.318-.957L6.466 1.97Zm.815-.59a.933.933 0 0 0-1.631 0L4.47 3.5a.933.933 0 0 1-.635.462l-2.38.466A.933.933 0 0 0 .95 5.979l1.651 1.777a.933.933 0 0 1 .243.748l-.292 2.407a.933.933 0 0 0 1.32.96l2.2-1.023a.933.933 0 0 1 .786 0l2.2 1.022a.933.933 0 0 0 1.319-.959l-.292-2.407a.933.933 0 0 1 .243-.748l1.651-1.777a.933.933 0 0 0-.504-1.551l-2.38-.466a.933.933 0 0 1-.636-.463L7.281 1.38Z" clip-rule="evenodd"/></svg>