<svg xmlns="http://www.w3.org/2000/svg" width="24" height="24" fill="none" viewBox="0 0 24 24"><g clip-path="url(#a)" filter="url(#b)"><path fill="url(#c)" fill-rule="evenodd" d="M8.25 13.75A2.25 2.25 0 0 0 6 16v2.25a2.25 2.25 0 0 0 2.25 2.25h.375c.621 0 1.125-.504 1.125-1.125v-4.5c0-.621-.504-1.125-1.125-1.125H8.25Zm7.5 0A2.25 2.25 0 0 1 18 16v2.25a2.25 2.25 0 0 1-2.25 2.25h-.375a1.125 1.125 0 0 1-1.125-1.125v-4.5c0-.621.504-1.125 1.125-1.125h.375Z" clip-rule="evenodd"/><path stroke="url(#d)" stroke-opacity="0.7" stroke-width="0.4" d="M6.2 16a2.05 2.05 0 0 1 2.05-2.05h.375c.51 0 .925.414.925.925v4.5c0 .51-.414.925-.925.925H8.25a2.05 2.05 0 0 1-2.05-2.05V16Zm9.55-2.05A2.05 2.05 0 0 1 17.8 16v2.25a2.05 2.05 0 0 1-2.05 2.05h-.375a.925.925 0 0 1-.925-.925v-4.5c0-.51.414-.925.925-.925h.375Z"/><path fill="url(#e)" fill-rule="evenodd" d="M19.65 16.75V13a7.65 7.65 0 1 0-15.3 0v3.75H3V13a9 9 0 0 1 18 0v3.75h-1.35Z" clip-rule="evenodd"/><path stroke="url(#f)" stroke-opacity="0.7" stroke-width="0.4" d="M19.85 16.55V13a7.85 7.85 0 0 0-15.7 0v3.55H3.2V13a8.8 8.8 0 1 1 17.6 0v3.55h-.95Z"/></g><defs><linearGradient id="c" x1="12" x2="12" y1="13.75" y2="20.5" gradientUnits="userSpaceOnUse"><stop stop-color="#FFE5AC"/><stop offset="1" stop-color="#FFB591"/></linearGradient><linearGradient id="d" x1="12" x2="12" y1="13.75" y2="20.5" gradientUnits="userSpaceOnUse"><stop stop-color="#fff"/><stop offset="0.505208" stop-color="#fff" stop-opacity="0"/><stop offset="1" stop-color="#fff"/></linearGradient><linearGradient id="e" x1="12" x2="12" y1="4" y2="16.75" gradientUnits="userSpaceOnUse"><stop stop-color="#FFE5AC"/><stop offset="1" stop-color="#FFB591"/></linearGradient><linearGradient id="f" x1="12" x2="12" y1="4" y2="16.75" gradientUnits="userSpaceOnUse"><stop stop-color="#fff"/><stop offset="0.505208" stop-color="#fff" stop-opacity="0"/><stop offset="1" stop-color="#fff"/></linearGradient><clipPath id="a"><path fill="#fff" d="M0 0h24v24H0z"/></clipPath><filter id="b" width="26" height="24.5" x="-1" y="0" color-interpolation-filters="sRGB" filterUnits="userSpaceOnUse"><feFlood flood-opacity="0" result="BackgroundImageFix"/><feColorMatrix in="SourceAlpha" result="hardAlpha" values="0 0 0 0 0 0 0 0 0 0 0 0 0 0 0 0 0 0 127 0"/><feOffset/><feGaussianBlur stdDeviation="2"/><feComposite in2="hardAlpha" operator="out"/><feColorMatrix values="0 0 0 0 0.2 0 0 0 0 0.290196 0 0 0 0 0.74902 0 0 0 0.12 0"/><feBlend in2="BackgroundImageFix" result="effect1_dropShadow_5367_13341"/><feBlend in="SourceGraphic" in2="effect1_dropShadow_5367_13341" result="shape"/></filter></defs></svg>