<svg viewBox="0 0 24 24" fill="none" xmlns="http://www.w3.org/2000/svg"><path d="M13 15a2 2 0 0 1-1 1.732V19a1 1 0 1 1-2 0v-2.268A2 2 0 0 1 11 13a2 2 0 0 1 2 2Zm-7-4.2h10a2.2 2.2 0 0 1 2.2 2.2v1.1a.9.9 0 1 0 1.8 0V13a4 4 0 0 0-4-4H6a4 4 0 0 0-4 4v7a4 4 0 0 0 4 4h7.1a.9.9 0 1 0 0-1.8H6A2.2 2.2 0 0 1 3.8 20v-7A2.2 2.2 0 0 1 6 10.8Zm15.425 9.695.15.087c.41.237.551.76.314 1.17l-.285.495a.859.859 0 0 1-1.171.314l-.15-.087a.566.566 0 0 0-.572 0 .566.566 0 0 0-.286.495v.174a.858.858 0 0 1-.857.857h-.571a.858.858 0 0 1-.857-.857v-.174a.566.566 0 0 0-.286-.494.565.565 0 0 0-.572 0l-.15.086a.858.858 0 0 1-1.17-.314l-.287-.494a.857.857 0 0 1 .314-1.171l.15-.087a.566.566 0 0 0 .286-.495.566.566 0 0 0-.286-.495l-.15-.087a.857.857 0 0 1-.314-1.17l.286-.495a.858.858 0 0 1 1.171-.314l.15.087a.566.566 0 0 0 .572 0 .566.566 0 0 0 .286-.495v-.174c0-.472.384-.857.857-.857h.571c.473 0 .857.385.857.857v.174c0 .206.107.391.286.494a.565.565 0 0 0 .571 0l.15-.086a.858.858 0 0 1 1.172.314l.285.494a.857.857 0 0 1-.313 1.171l-.15.087a.566.566 0 0 0-.286.495c0 .207.106.392.285.495ZM16.854 20c0 .788.64 1.429 1.428 1.429A1.43 1.43 0 0 0 19.711 20a1.43 1.43 0 0 0-1.429-1.429A1.43 1.43 0 0 0 16.854 20ZM15.2 6.6v-.1a4.2 4.2 0 1 0-8.4 0v.1a.9.9 0 1 1-1.8 0v-.1a6 6 0 1 1 12 0v.1a.9.9 0 1 1-1.8 0Z" fill-rule="evenodd" clip-rule="evenodd" fill="#303033"/></svg>