<svg viewBox="0 0 24 24" fill="none" xmlns="http://www.w3.org/2000/svg"><g clip-path="url(#a)"><path d="M11.697 23.067C6.717 21.584 2.9 16.345 2.9 10.77V4.886L11.72.984l8.809 3.902v5.874c0 5.577-3.835 10.838-8.832 12.307Z" stroke="#303033" stroke-width="1.8"/><path fill-rule="evenodd" clip-rule="evenodd" d="M10.125 6.775c.5-.5 1.175-.775 1.9-.775.7 0 1.4.275 1.9.775s.775 1.15.775 1.85c0 .25-.2.425-.45.425s-.45-.2-.45-.425c0-.45-.2-.9-.525-1.225a1.757 1.757 0 0 0-1.25-.5c-.475 0-.925.175-1.25.5a1.767 1.767 0 0 0-.525 1.225c0 .25-.2.425-.45.425s-.45-.2-.45-.425c0-.7.275-1.375.775-1.85ZM8.4 10.3c.25-.25.6-.375.95-.375h5.35c.35 0 .7.15.95.375.25.25.4.575.4.925V14.7c0 .35-.15.675-.4.925s-.6.375-.95.375H9.35c-.35 0-.7-.15-.95-.375-.25-.25-.4-.575-.4-.925v-3.475c.025-.35.15-.675.4-.925Zm4.075 3.975v-1c.175-.1.3-.25.375-.425.075-.175.1-.375.025-.55a.805.805 0 0 0-.3-.45.852.852 0 0 0-.55-.175c-.2 0-.375.075-.55.175-.15.1-.25.275-.3.45a.833.833 0 0 0 .025.55c.075.175.2.325.375.425v1c0 .125.05.225.125.3.075.075.2.125.325.125s.225-.05.325-.125a.414.414 0 0 0 .125-.3Z" fill="#303033"/></g><defs><clipPath id="a"><path fill="#fff" d="M0 0h24v24H0z"/></clipPath></defs></svg>