<svg xmlns="http://www.w3.org/2000/svg" width="74" height="58" fill="none" viewBox="0 0 74 58"><rect width="74" height="58" fill="#4B6CDB" rx="10"/><g opacity="0.8"><mask id="c" fill="#fff"><path fill-rule="evenodd" d="M60.536 0a56.788 56.788 0 0 1 1.502 5.295C66.906 26.287 58.887 46.22 43.018 58H10C4.477 58 0 53.523 0 48V10C0 4.477 4.477 0 10 0h50.536Z" clip-rule="evenodd"/></mask><path fill="url(#a)" fill-rule="evenodd" d="M60.536 0a56.788 56.788 0 0 1 1.502 5.295C66.906 26.287 58.887 46.22 43.018 58H10C4.477 58 0 53.523 0 48V10C0 4.477 4.477 0 10 0h50.536Z" clip-rule="evenodd"/><path fill="url(#b)" d="m62.038 5.295-.974.226.974-.226ZM60.536 0v-1h.718l.23.68-.948.32ZM43.018 58l.596.803-.266.197h-.33v-1ZM61.064 5.521A55.78 55.78 0 0 0 59.588.32l1.895-.638a57.795 57.795 0 0 1 1.529 5.388l-1.948.452ZM42.422 57.197C57.977 45.65 65.84 26.12 61.064 5.521l1.948-.452c4.96 21.387-3.215 41.72-19.398 53.734l-1.192-1.606ZM10 57h33.018v2H10v-2Zm-9-9a9 9 0 0 0 9 9v2C3.925 59-1 54.075-1 48h2Zm0-38v38h-2V10h2Zm9-9a9 9 0 0 0-9 9h-2C-1 3.925 3.925-1 10-1v2Zm50.536 0H10v-2h50.536v2Z" mask="url(#c)"/></g><defs><linearGradient id="a" x1="44.2915" x2="13.8023" y1="21.6688" y2="60.6219" gradientUnits="userSpaceOnUse"><stop stop-color="#5577EA"/><stop offset="1" stop-color="#5577EA" stop-opacity="0"/></linearGradient><linearGradient id="b" x1="46.8666" x2="36.9414" y1="16.4956" y2="26.3294" gradientUnits="userSpaceOnUse"><stop stop-color="#4B6CDB"/><stop offset="1" stop-color="#4B6CDB" stop-opacity="0"/></linearGradient></defs></svg>