<svg width="40" height="40" viewBox="0 0 40 40" fill="none" xmlns="http://www.w3.org/2000/svg">
<g filter="url(#filter0_f_4900_27253)">
<ellipse cx="20" cy="31.5" rx="10" ry="3.5" fill="#5787F8" fill-opacity="0.3"/>
</g>
<path d="M5.67813 11.7953H30.4627C32.0644 11.7953 33.3627 13.0937 33.3627 14.6953V26.6569C33.3627 28.8108 31.6166 30.5569 29.4627 30.5569H5.67813V11.7953Z" fill="url(#paint0_linear_4900_27253)" stroke="#A7CBFA" stroke-width="0.2"/>
<path d="M5.67813 8C5.67813 6.39838 6.9765 5.1 8.57812 5.1H27.1166C28.7182 5.1 30.0166 6.39837 30.0166 8V10.4769H5.67813V8Z" fill="url(#paint1_linear_4900_27253)" stroke="#A7CBFA" stroke-width="0.2"/>
<rect x="22.3086" y="23.9609" width="7.80769" height="3.34615" rx="1.67308" fill="white"/>
<g filter="url(#filter1_b_4900_27253)">
<circle cx="9.48047" cy="24.5195" r="8" fill="#A3B5FE" fill-opacity="0.6"/>
<circle cx="9.48047" cy="24.5195" r="7.76562" stroke="url(#paint2_linear_4900_27253)" stroke-width="0.46875"/>
</g>
<g filter="url(#filter2_d_4900_27253)">
<path d="M10.1127 26.1347V21.3383C10.1127 20.989 9.82797 20.7055 9.47678 20.7055C9.39347 20.7052 9.31092 20.7214 9.23386 20.7531C9.1568 20.7848 9.08673 20.8313 9.02767 20.8901C8.96861 20.9488 8.92171 21.0187 8.88965 21.0956C8.8576 21.1725 8.84101 21.2549 8.84085 21.3383V26.1347L6.7489 24.0529C6.49579 23.8377 6.12055 23.8523 5.88516 24.0858C5.77207 24.1982 5.70579 24.3493 5.69968 24.5086C5.69358 24.668 5.7481 24.8237 5.85226 24.9444L8.96803 28.045C9.02514 28.1214 9.09871 28.1839 9.18327 28.2279C9.26783 28.272 9.36122 28.2964 9.45652 28.2995C9.55182 28.3025 9.64658 28.2841 9.73377 28.2455C9.82097 28.2069 9.89837 28.1492 9.96022 28.0767L13.1076 24.9444C13.1665 24.8856 13.2131 24.8157 13.2448 24.7387C13.2766 24.6618 13.2927 24.5793 13.2924 24.4961C13.2921 24.4129 13.2754 24.3305 13.2431 24.2538C13.2109 24.1771 13.1637 24.1075 13.1045 24.0491C12.9844 23.9309 12.8224 23.8649 12.6539 23.8655C12.4854 23.866 12.3239 23.9332 12.2047 24.0522L10.1127 26.1347Z" fill="url(#paint3_linear_4900_27253)"/>
</g>
<defs>
<filter id="filter0_f_4900_27253" x="6" y="24" width="28" height="15" filterUnits="userSpaceOnUse" color-interpolation-filters="sRGB">
<feFlood flood-opacity="0" result="BackgroundImageFix"/>
<feBlend mode="normal" in="SourceGraphic" in2="BackgroundImageFix" result="shape"/>
<feGaussianBlur stdDeviation="2" result="effect1_foregroundBlur_4900_27253"/>
</filter>
<filter id="filter1_b_4900_27253" x="-0.394531" y="14.6445" width="19.75" height="19.75" filterUnits="userSpaceOnUse" color-interpolation-filters="sRGB">
<feFlood flood-opacity="0" result="BackgroundImageFix"/>
<feGaussianBlur in="BackgroundImageFix" stdDeviation="0.9375"/>
<feComposite in2="SourceAlpha" operator="in" result="effect1_backgroundBlur_4900_27253"/>
<feBlend mode="normal" in="SourceGraphic" in2="effect1_backgroundBlur_4900_27253" result="shape"/>
</filter>
<filter id="filter2_d_4900_27253" x="4.01159" y="19.8616" width="10.9685" height="10.9696" filterUnits="userSpaceOnUse" color-interpolation-filters="sRGB">
<feFlood flood-opacity="0" result="BackgroundImageFix"/>
<feColorMatrix in="SourceAlpha" type="matrix" values="0 0 0 0 0 0 0 0 0 0 0 0 0 0 0 0 0 0 127 0" result="hardAlpha"/>
<feOffset dy="0.843813"/>
<feGaussianBlur stdDeviation="0.843813"/>
<feComposite in2="hardAlpha" operator="out"/>
<feColorMatrix type="matrix" values="0 0 0 0 0 0 0 0 0 0 0 0 0 0 0 0 0 0 0.14 0"/>
<feBlend mode="normal" in2="BackgroundImageFix" result="effect1_dropShadow_4900_27253"/>
<feBlend mode="normal" in="SourceGraphic" in2="effect1_dropShadow_4900_27253" result="shape"/>
</filter>
<linearGradient id="paint0_linear_4900_27253" x1="19.5204" y1="11.6953" x2="19.5204" y2="30.6569" gradientUnits="userSpaceOnUse">
<stop stop-color="#97BFFF" stop-opacity="0.77"/>
<stop offset="0.0597341" stop-color="#2C67F6" stop-opacity="0.77"/>
<stop offset="0.736546" stop-color="#427FF7"/>
<stop offset="1" stop-color="#76ABF8"/>
</linearGradient>
<linearGradient id="paint1_linear_4900_27253" x1="17.8474" y1="5" x2="17.8474" y2="10.5769" gradientUnits="userSpaceOnUse">
<stop stop-color="#A7CBFA"/>
<stop offset="1" stop-color="#548FF7"/>
</linearGradient>
<linearGradient id="paint2_linear_4900_27253" x1="4.82542" y1="21.4607" x2="16.0026" y2="27.7871" gradientUnits="userSpaceOnUse">
<stop stop-color="#C7E4FF"/>
<stop offset="0.890625" stop-color="#F7FBFF" stop-opacity="0.65"/>
<stop offset="1" stop-color="white" stop-opacity="0.96"/>
</linearGradient>
<linearGradient id="paint3_linear_4900_27253" x1="9.49583" y1="28.2998" x2="9.49583" y2="20.7055" gradientUnits="userSpaceOnUse">
<stop stop-color="white"/>
<stop offset="1" stop-color="#D3E2FC"/>
</linearGradient>
</defs>
</svg>
