<svg xmlns="http://www.w3.org/2000/svg" width="220" height="220" fill="none"><g clip-path="url(#a)"><path fill="url(#b)" d="M134.261 68.19c-11.366 8.972-35.765 10.014-53.665-.658-17.9-10.673-50.95-9.295-59.901 10.329-8.952 19.624 11.016 38.902 3.785 53.017-7.23 14.115-31.328 34.08-14.805 58.177s37.501 17.957 50.126 15.537c24.933-4.778 56.219 34.263 91.419 4.778 20.282-16.988 50.487 12.467 62.256-24.101 9.71-30.172-25.377-41.322-14.802-61.622 11.244-21.588 9.085-47.17-3.099-59.557-11.345-11.54-41.692-11.393-61.314 4.1Z"/><path fill="url(#c)" d="M86.063 163.883c3.14-1.46 79.421-16.703 79.421-16.703l28.787 8.513-28.262 26.029-79.946-17.839Z"/><path fill="url(#d)" d="m74.124 183.322-17.79 10.086 5.524-.468 24.174-5.66-11.908-3.958Z"/><path fill="url(#e)" d="M25.43 128.347s-.065-.169-.154.012c-.8 1.626-8.042 19.242-8.616 32.839 0 0-1.21 7.811 8.919 7.707 8.454-.086 8.228-7.287 8.199-9.713-.113-9.84-8.348-30.845-8.348-30.845Z"/><path fill="url(#f)" d="M25.2 177.555a.297.297 0 0 1-.296-.296v-44.178a.297.297 0 0 1 .592 0v44.178c0 .163-.13.296-.296.296Z"/><path fill="url(#g)" d="M173.795 115.687s-.042-.11-.098.009c-.516 1.045-5.178 12.39-5.548 21.144 0 0-.779 5.029 5.743 4.964 5.445-.053 5.3-4.692 5.279-6.253-.074-6.342-5.376-19.864-5.376-19.864Z"/><path fill="url(#h)" d="M173.648 147.371a.19.19 0 0 1-.19-.19v-28.443a.19.19 0 0 1 .379 0v28.443a.187.187 0 0 1-.189.19Z"/><path fill="url(#i)" d="M190.443 170.104a5.086 5.086 0 1 0 0-10.172 5.086 5.086 0 0 0 0 10.172Z"/><path fill="url(#j)" d="M190.462 177.591a.158.158 0 0 1-.157-.157v-16.058c0-.086.071-.157.157-.157.086 0 .157.071.157.157v16.058a.158.158 0 0 1-.157.157Z"/><path fill="url(#k)" d="M144.667 61.31c0 2.59-2.093 4.69-4.674 4.69h-23.646c-3.138 0-5.68-2.552-5.68-5.7s2.542-5.7 5.68-5.7c.221 0 .439.015.653.04.097-4.234 3.543-7.64 7.786-7.64a7.78 7.78 0 0 1 6.466 3.452 6.355 6.355 0 0 1 2.819-.663c3.538 0 6.406 2.878 6.406 6.428 0 .144-.012.285-.022.427a4.684 4.684 0 0 1 4.212 4.666Z"/><path fill="#EDF3FF" d="M59.326 191.737c0 1.084 1.936 1.964 4.326 1.964 2.388 0 4.324-.88 4.324-1.964 0-1.087-1.936-1.965-4.324-1.965-2.39 0-4.326.881-4.326 1.965Zm92.617-25.126c0 1.68 4.305 3.048 9.613 3.048 5.309 0 9.61-1.365 9.61-3.048 0-1.685-4.301-3.049-9.61-3.049-5.308 0-9.613 1.364-9.613 3.049Z"/><path fill="url(#l)" d="m51.2 126.328 57.246-9.209.054 62.923-46.767-8.058L51.2 126.328Z"/><path fill="#D9E3F5" d="m51.151 126.268 45.277 15.289-.235 47.774-35.916-16.674-9.126-46.389Z"/><path fill="#9EB1CE" d="m82.12 142.119-17.561-5.82c-1.153-.378-2.293.602-2.06 1.771l1.224 6.106 19.858 6.575.033-6.589a2.158 2.158 0 0 0-1.491-2.043h-.002Z"/><path fill="#C6D6E7" d="m82.14 141.717-17.225-5.816a1.553 1.553 0 0 0-2.019 1.771l1.2 6.106 19.474 6.573.036-6.589a2.148 2.148 0 0 0-1.465-2.045Z"/><path fill="#9EB1CE" d="m130.73 136.464-17.535-5.818c-1.15-.381-2.286.599-2.052 1.77l1.221 6.107 19.815 6.575.033-6.589a2.134 2.134 0 0 0-1.484-2.045h.002Z"/><path fill="#D9E3F5" d="m108.445 117.037 42.335 11.974-7.933 48.123-34.402 8.956v-69.053Zm3.598 6.414a1.553 1.553 0 0 0-.5 1.468l1.198 6.106 19.474 6.572.033-6.589a2.156 2.156 0 0 0-1.463-2.042l-17.225-5.818a1.56 1.56 0 0 0-1.517.305v-.002Z"/><path fill="url(#m)" d="m96.453 141.547-.312 47.785 48.774-12.532 5.87-47.79-54.332 12.537Z"/><path fill="#9EB1CE" d="m108.109 117.104 42.153 12.025.397-.092-42.339-11.969-.211.036Z"/><path fill="#9EB1CE" d="m51.151 126.269 57.314-9.228-.019.142-57.11 9.15-.185-.064Z"/><path fill="#9EB1CE" d="m51.151 126.269 45.288 15.313.235-.059L51.35 126.24l-.199.029Z"/><path fill="#9EB1CE" d="m96.39 141.586 54.27-12.549-.01.142-54.275 12.563.014-.156Z"/><path fill="#2C3F8C" d="M118.104 138.061s5.451 44.01 5.503 45.127c.054 1.117 10.116 6.324 10.116 6.324l-15.617-51.451h-.002Z" opacity=".2"/><path fill="#BACDDF" d="m117.552 136.061 16.165 53.451 14.651-1.093-16.731-53.802-14.085 1.444Z"/><path fill="#D9E3F5" d="m131.635 134.615 25.181-16.113 11.649 51.198-20.099 18.717-16.731-53.802Z"/><path fill="#E0EDFC" d="m143.906 119.192-26.354 16.868 14.075-1.429 25.183-16.113-12.904.674Z"/><path fill="#D9E3F5" d="M37.24 116.588a.581.581 0 0 1-.02-1.164c8.035-.262 16.986-10.526 17.077-10.628a14.712 14.712 0 0 0 1.42-2.03 16.99 16.99 0 0 1-1.01-.023l-.046-.003c-2.587-.339-5.57-1.943-6.265-4.358-.353-1.228-.245-3.127 2.275-5.212l.073-.052c2.377-1.412 4.784-1.202 6.283.554 1.432 1.677 1.858 4.59.61 7.808 16.406-1.98 27.565-27.522 27.681-27.793a.587.587 0 0 1 .767-.306c.295.128.432.47.307.767-.032.073-3.23 7.449-8.666 14.603-6.524 8.587-13.615 13.364-20.641 13.954a15.648 15.648 0 0 1-1.899 2.846c-.385.447-9.38 10.763-17.928 11.043-.006-.006-.012-.006-.018-.006Zm17.55-15.012c.513.026 1.023.026 1.528.006 1.327-2.99 1.05-5.717-.178-7.155-1.114-1.304-2.89-1.426-4.76-.332-1.114.93-2.322 2.362-1.864 3.96.484 1.672 2.748 3.183 5.273 3.521Zm24.028 25.366c2.007-.942 15.391-5.291 10.328-15.272 0 0 1.826-2.668 3.036-3.173a.129.129 0 0 0 .018-.23l-.368-.231a.221.221 0 0 0-.195-.023c-.353.122-1.546.679-3.244 2.972 0 0-13.142-1.762-9.884 15.794a.22.22 0 0 0 .309.163Z"/><g clip-path="url(#n)"><path fill="url(#o)" d="M36.596 195.254c0 .375 1.96.735 5.448 1.001 3.489.265 8.22.414 13.153.414s9.664-.149 13.153-.414c3.488-.266 5.448-.626 5.448-1.001 0-.376-1.96-.736-5.448-1.001-3.489-.266-8.22-.415-13.153-.415s-9.664.149-13.153.415c-3.488.265-5.448.625-5.448 1.001Z"/><path fill="#F6F9FD" d="M61.506 182.535a36.636 36.636 0 0 1-7.491 3.206l-6.624-4.742.91-7.946 7.448-3.211 6.624 4.745-.867 7.948Z"/><path fill="#B7CBDD" d="m53.959 186.074-6.892-4.937.952-8.299 7.769-3.348 6.908 4.949-.901 8.282-.136.077a36.924 36.924 0 0 1-7.553 3.233l-.147.043Zm-6.247-5.222 6.357 4.554a36.271 36.271 0 0 0 7.15-3.059l.833-7.619-6.34-4.542-7.128 3.073-.872 7.593Z"/><path fill="#B7CBDD" d="m55.748 169.834-7.448 3.211-4.639-4.59a94.746 94.746 0 0 1 4.445-5.91 40.113 40.113 0 0 1 7.516.555l.126 6.734Z"/><path fill="#B7CBDD" d="m48.232 173.407-4.964-4.914.146-.208a98.529 98.529 0 0 1 4.457-5.928l.09-.109h.138c1.06-.021 2.136 0 3.195.061 1.467.087 2.928.253 4.377.498l.248.041.14 7.191-7.827 3.368Zm-4.176-4.986 4.312 4.266 7.075-3.052-.119-6.278a40.451 40.451 0 0 0-4.064-.448c-1-.058-2.003-.079-3.005-.063a98.631 98.631 0 0 0-4.199 5.575Zm1.293 22.66c2.446.75 5.01 1.038 7.56.848l1.11-6.191-6.63-4.741-5.355 3.384a38.443 38.443 0 0 0 3.316 6.7Z"/><path fill="#B7CBDD" d="M51.385 192.292a20.843 20.843 0 0 1-6.125-.917l-.11-.033-.06-.097a39.404 39.404 0 0 1-3.338-6.756l-.088-.232 5.738-3.626 6.947 4.976-1.185 6.611-.235.018a20.98 20.98 0 0 1-1.544.056Zm-5.838-1.465c2.3.691 4.705.967 7.102.818l1.033-5.768-6.301-4.515-4.971 3.143a39.178 39.178 0 0 0 3.135 6.322h.002Zm15.958-8.292 5.515 2.999a14.475 14.475 0 0 0 4.089-6.023 16.938 16.938 0 0 0-3.094-7.189l-5.643 2.262-.867 7.951Z"/><path fill="#B7CBDD" d="m67.06 185.898-5.88-3.197.909-8.335 6.029-2.417.139.188a17.212 17.212 0 0 1 3.149 7.317l.014.079-.027.076a14.761 14.761 0 0 1-4.174 6.149l-.159.14Zm-5.232-3.537 5.148 2.798a14.144 14.144 0 0 0 3.815-5.68 16.61 16.61 0 0 0-2.886-6.792l-5.254 2.106-.823 7.568Z"/><path fill="#F6F9FD" d="m47.433 180.999-5.399 3.379-3.961-3.981.552-8.414 5.036-3.526 4.64 4.59-.868 7.952Z"/><path fill="#B7CBDD" d="m41.989 184.762-4.232-4.25.572-8.697 5.363-3.754 4.925 4.871-.902 8.244-5.726 3.586Zm-3.607-4.484 3.693 3.712 5.07-3.173.84-7.66-4.355-4.309-4.71 3.297-.538 8.133Z"/><path fill="#F6F9FD" d="m65.47 191.47-7.734 3.449a18.404 18.404 0 0 1-4.835-2.993l1.11-6.191a36.526 36.526 0 0 0 7.49-3.206l5.516 2.999a13.473 13.473 0 0 1-1.547 5.942Z"/><path fill="#B7CBDD" d="m57.741 195.255-.122-.052a18.72 18.72 0 0 1-4.914-3.042l-.132-.113 1.173-6.542.178-.054a36.3 36.3 0 0 0 7.429-3.179l.147-.084 5.826 3.168-.004.186a13.79 13.79 0 0 1-1.582 6.076l-.05.093-7.949 3.543Zm-4.509-3.443a18.109 18.109 0 0 0 4.503 2.781l7.516-3.352a13.17 13.17 0 0 0 1.457-5.53l-5.203-2.829a37.076 37.076 0 0 1-7.227 3.096l-1.046 5.834Z"/><path fill="#F6F9FD" d="m68.014 172.317-5.643 2.262-6.624-4.745-.127-6.735a13.91 13.91 0 0 1 5.87-1.328 28.884 28.884 0 0 1 6.257 4.313 12.74 12.74 0 0 1 .267 6.232v.001Z"/><path fill="#B7CBDD" d="m62.33 174.925-6.884-4.931-.134-7.083.179-.084a14.19 14.19 0 0 1 5.998-1.356h.074l.07.033a29.172 29.172 0 0 1 6.321 4.357l.063.057.024.082a13.02 13.02 0 0 1 .274 6.382l-.033.159-5.952 2.384Zm-6.282-5.247 6.364 4.559 5.336-2.138a12.428 12.428 0 0 0-.269-5.844 28.608 28.608 0 0 0-6.06-4.176 13.601 13.601 0 0 0-5.491 1.215l.12 6.384Z"/><path fill="#F6F9FD" d="M48.104 162.545a96.008 96.008 0 0 0-4.443 5.91l-5.037 3.525a3.099 3.099 0 0 1-.783-1.778 19.263 19.263 0 0 1 4.092-5.959c2.063-2.048 4.41-3.285 5.85-3.901a5.86 5.86 0 0 0 .01 1.026c.044.406.15.803.31 1.177Z"/><path fill="#B7CBDD" d="m38.576 172.387-.18-.2a3.354 3.354 0 0 1-.858-1.954l-.007-.077.031-.069a19.596 19.596 0 0 1 4.158-6.054c2.15-2.138 4.584-3.376 5.881-3.937l.047-.053h.44v.505l-.013.005a5.51 5.51 0 0 0 .02.788c.041.376.138.743.287 1.091l.069.168-.116.143a97.557 97.557 0 0 0-4.43 5.892l-.03.044-5.299 3.708Zm-.424-2.133a2.734 2.734 0 0 0 .527 1.319l4.76-3.333a99.581 99.581 0 0 1 4.315-5.744 4.394 4.394 0 0 1-.264-1.091 5.81 5.81 0 0 1-.029-.584c-1.318.606-3.426 1.767-5.313 3.641a18.995 18.995 0 0 0-3.996 5.792Z"/><path fill="#F6F9FD" d="M61.49 161.776c-2.03.008-4.034.461-5.871 1.326a40.06 40.06 0 0 0-7.516-.554 4.532 4.532 0 0 1-.318-2.204 18.913 18.913 0 0 1 8.206-1.412c2.06.1 3.098.386 4.595.822.253.548.572 1.235.904 2.022Z"/><path fill="#B7CBDD" d="m55.664 163.417-.094-.015a40.092 40.092 0 0 0-7.458-.55l-.209.004-.079-.192a4.835 4.835 0 0 1-.34-2.351l.02-.18.166-.07a19.227 19.227 0 0 1 8.338-1.434c2.056.099 3.112.381 4.665.832l.133.039.064.138c.255.548.57 1.231.902 2.012l.178.419h-.456a13.617 13.617 0 0 0-5.743 1.309l-.087.039Zm-6.753-1.179a40.303 40.303 0 0 1 6.667.551 14.2 14.2 0 0 1 5.457-1.307c-.241-.555-.47-1.05-.665-1.473-1.48-.428-2.457-.677-4.391-.771a18.613 18.613 0 0 0-7.905 1.32 4.225 4.225 0 0 0 .239 1.684c.198-.004.397-.006.598-.006v.002Z"/><path fill="#F6F9FD" d="m38.074 180.396 3.961 3.982a39.314 39.314 0 0 0 3.312 6.703 6.659 6.659 0 0 0-1.179 1.67 18.211 18.211 0 0 1-2.077-1.697c-.656-.617-1.377-1.414-2.22-2.574a18.429 18.429 0 0 1-2.96-6.333 4.163 4.163 0 0 1 1.16-1.749l.003-.002Z"/><path fill="#B7CBDD" d="m44.286 193.205-.29-.201a18.411 18.411 0 0 1-2.115-1.73c-.763-.716-1.498-1.572-2.255-2.617a18.763 18.763 0 0 1-3.008-6.437l-.022-.088.03-.086a4.49 4.49 0 0 1 1.244-1.873l.215-.193 4.211 4.232.023.06a39.19 39.19 0 0 0 1.66 3.757 39.09 39.09 0 0 0 1.627 2.894l.124.201-.165.171a6.362 6.362 0 0 0-1.122 1.595l-.157.315Zm-7.058-11.044a18.198 18.198 0 0 0 2.89 6.14c.733 1.013 1.446 1.841 2.177 2.531a18.112 18.112 0 0 0 1.767 1.47 6.979 6.979 0 0 1 .903-1.258 39.68 39.68 0 0 1-3.194-6.497l-3.705-3.724a3.876 3.876 0 0 0-.839 1.338h.002Z"/><path fill="#F6F9FD" d="M45.348 191.082c2.446.75 5.01 1.037 7.56.848a18.405 18.405 0 0 0 4.836 2.993 1.22 1.22 0 0 1-.331 1.134 18.603 18.603 0 0 1-13.244-3.305 6.638 6.638 0 0 1 1.18-1.67Z"/><path fill="#B7CBDD" d="M54.975 196.519a18.878 18.878 0 0 1-10.98-3.521l-.209-.15.115-.232a6.9 6.9 0 0 1 1.23-1.746l.13-.134.177.054c2.41.738 4.935 1.02 7.447.833l.126-.009.095.082a18.12 18.12 0 0 0 4.755 2.943l.145.061.034.154a1.534 1.534 0 0 1-.416 1.414l-.073.073-.103.014a19.11 19.11 0 0 1-2.473.164Zm-10.412-3.864a18.467 18.467 0 0 0 5.799 2.663c2.25.588 4.59.741 6.897.451a.92.92 0 0 0 .208-.635 18.706 18.706 0 0 1-4.66-2.893 20.874 20.874 0 0 1-7.364-.815 6.378 6.378 0 0 0-.647.843c-.083.125-.16.254-.233.386Z"/><path fill="#F6F9FD" d="M65.474 191.468a13.47 13.47 0 0 0 1.547-5.942 14.462 14.462 0 0 0 4.088-6.023l2.454-.013a18.865 18.865 0 0 1-2.098 6.808 18.604 18.604 0 0 1-4.218 5.271s-1.101-.032-1.773-.101Z"/><path fill="#B7CBDD" d="m67.357 191.883-.12-.004c-.045 0-1.118-.038-1.791-.102l-.451-.043.208-.401a13.175 13.175 0 0 0 1.512-5.808l.003-.133.1-.088a14.145 14.145 0 0 0 4.002-5.895l.07-.202 3.006-.016-.035.338a18.877 18.877 0 0 1-6.419 12.277l-.085.077Zm-1.405-.676c.46.031.963.052 1.188.061a18.165 18.165 0 0 0 4.06-5.108 18.605 18.605 0 0 0 2.025-6.358l-1.9.01a14.762 14.762 0 0 1-4.002 5.861 13.772 13.772 0 0 1-1.371 5.534Z"/><path fill="#F6F9FD" d="M71.108 179.509a17.161 17.161 0 0 0-1.99-5.505 16.688 16.688 0 0 0-1.104-1.684 12.74 12.74 0 0 0-.267-6.232l2.126.208c.493.647 2.302 3.101 3.144 6.413.763 2.988.694 4.929.545 6.786l-2.454.014Z"/><path fill="#B7CBDD" d="m70.855 179.813-.045-.251a16.795 16.795 0 0 0-1.953-5.407 16.354 16.354 0 0 0-1.085-1.654l-.081-.11.027-.133c.419-2.018.33-4.109-.26-6.084l-.13-.434 2.705.267.08.105c.863 1.131 2.428 3.483 3.198 6.52.776 3.052.704 4.999.555 6.887l-.022.277-2.989.017Zm-2.515-7.566a17.1 17.1 0 0 1 1.045 1.605 17.409 17.409 0 0 1 1.977 5.351l1.92-.01c.131-1.75.158-3.598-.555-6.41-.723-2.844-2.165-5.064-3.013-6.197l-1.55-.153c.497 1.9.558 3.888.178 5.814h-.002Z"/><path fill="#B7CBDD" d="M67.747 166.087a28.887 28.887 0 0 0-6.257-4.313 637.96 637.96 0 0 1-.902-2.02 18.748 18.748 0 0 1 9.28 6.543c-.694-.071-1.421-.14-2.121-.21Z"/><path fill="#B7CBDD" d="m70.527 166.668-.688-.069-1.062-.104-1.064-.105-.099-.01-.074-.069a28.595 28.595 0 0 0-6.19-4.266l-.096-.05-1.223-2.733.644.201a18.716 18.716 0 0 1 5.383 2.695 19.004 19.004 0 0 1 4.055 3.954l.414.556Zm-2.654-.873.963.095.355.035a18.618 18.618 0 0 0-3.489-3.272 18.112 18.112 0 0 0-4.559-2.391l.578 1.292a29.14 29.14 0 0 1 6.152 4.241Zm-10.135 29.128 7.734-3.452 1.773.101c-1.056.937-2.471 2.03-4.833 3.082-2.104.937-3.745 1.218-5.006 1.401l.295-.471.037-.661Z"/><path fill="#B7CBDD" d="m56.803 196.453.6-.961.043-.77 7.97-3.555 2.583.148-.551.485c-.997.884-2.456 2.038-4.911 3.132-2.012.896-3.634 1.214-5.086 1.424l-.648.097Zm1.229-1.327-.03.533a16.774 16.774 0 0 0 4.288-1.28c1.948-.867 3.248-1.774 4.184-2.542l-.945-.055-7.497 3.344Zm-19.407-23.141-.555 8.414a4.167 4.167 0 0 0-1.16 1.748 19.28 19.28 0 0 1-.486-6.391c.178-1.99.744-3.945 1.413-5.549a3.032 3.032 0 0 0 .788 1.778Z"/><path fill="#B7CBDD" d="m36.864 183.21-.249-.991a19.67 19.67 0 0 1-.493-6.494c.208-2.311.895-4.342 1.436-5.639l.474-1.139.11 1.229a2.733 2.733 0 0 0 .705 1.603l.084.095-.569 8.664-.092.083c-.49.441-.86 1-1.073 1.624l-.334.965Zm.914-12.004c-.44 1.214-.89 2.812-1.048 4.578a19.251 19.251 0 0 0 .278 5.428 4.528 4.528 0 0 1 .764-.954l.536-8.169a3.446 3.446 0 0 1-.493-.788 1.038 1.038 0 0 0-.037-.095Z"/></g><path fill="url(#p)" d="M76.95 196.905c0 .27 1.096.528 3.046.719 1.95.191 4.595.298 7.353.298s5.403-.107 7.353-.298c1.95-.191 3.046-.449 3.046-.719 0-.269-1.096-.528-3.046-.719-1.95-.19-4.595-.297-7.353-.297s-5.403.107-7.353.297c-1.95.191-3.046.45-3.046.719Z"/><path fill="#F5F8FE" d="M73.958 183.979a12.934 12.934 0 1 0 25.868-.001 12.934 12.934 0 0 0-25.868.001Z"/><path fill="#B7CBDD" d="M99.785 184.85c-.03-.003-.06-.015-.089-.015-.73.049-1.44.16-2.133.319a18.265 18.265 0 0 0-.877-2.599 41.281 41.281 0 0 0 2.643-2.111 13.159 13.159 0 0 0-.425-1.252.594.594 0 0 0-.204.119 37.985 37.985 0 0 1-2.551 2.07 18.55 18.55 0 0 0-1.563-2.525c.87-.948 1.61-2.03 2.189-3.218a12.764 12.764 0 0 0-.897-.955.598.598 0 0 0-.136.185 12.211 12.211 0 0 1-1.956 2.98 18.932 18.932 0 0 0-10.526-6.276 12.93 12.93 0 0 0-2.17.859c.081.06.174.104.285.115a17.627 17.627 0 0 1 11.5 6.202c-2.221 2.033-5.142 3.24-8.245 3.24-3.433 0-6.62-1.396-8.972-3.929a.647.647 0 0 0-.193-.137 12.93 12.93 0 0 0-.551 1.185c2.543 2.637 6.065 4.155 9.712 4.155 3.392 0 6.594-1.296 9.038-3.496a16.727 16.727 0 0 1 1.422 2.34c-5.846 4.051-12.74 6.48-19.861 6.873a.585.585 0 0 0-.241.063c.174.407.367.799.578 1.181 7.18-.444 14.13-2.885 20.05-6.939.292.715.526 1.455.718 2.21a13.468 13.468 0 0 0-9.186 11.309c-.004.037.007.066.007.103a11.91 11.91 0 0 0 1.278-.089 12.186 12.186 0 0 1 8.171-10.075c.167.959.267 1.937.267 2.937 0 .944-.015 2.08-.06 2.595.5-.596.941-1.244 1.33-1.925.004-.267.004-.504.004-.674 0-1.118-.108-2.214-.304-3.281a12.477 12.477 0 0 1 1.792-.274c.074-.414.126-.837.156-1.27Z"/><path fill="url(#q)" d="M157.234 190.988c0 .079.833.154 2.315.209a160.6 160.6 0 0 0 5.59.086c2.096 0 4.107-.031 5.589-.086 1.482-.055 2.315-.13 2.315-.209 0-.078-.833-.153-2.315-.208a157.822 157.822 0 0 0-5.589-.087c-2.097 0-4.107.031-5.59.087-1.482.055-2.315.13-2.315.208Z"/><path fill="#B0C5D9" d="M173.479 185.583c-.23.463-.504.903-.818 1.315a.63.63 0 0 0-.288-.368 10.574 10.574 0 0 1-4.621-5.863 10.453 10.453 0 0 1 .262-7.422.674.674 0 0 0 .04-.438c.487.154.96.351 1.413.587a8.958 8.958 0 0 0-.387 6.835 9.107 9.107 0 0 0 4.363 5.324l.036.03Z"/><path fill="#B0C5D9" d="M169.466 173.394a7.668 7.668 0 0 0-.724 2.151 8.644 8.644 0 0 0-1.333-.258c.129-.709.341-1.4.631-2.06a.674.674 0 0 0 .04-.438 8.88 8.88 0 0 1 1.386.605Zm-7.198 16.356a.68.68 0 0 0-.044.438 8.948 8.948 0 0 1-1.4-.587 8.954 8.954 0 0 0 .387-6.835 9.15 9.15 0 0 0-4.355-5.333 9.15 9.15 0 0 1 .782-1.275.61.61 0 0 0 .271.307 10.584 10.584 0 0 1 4.613 5.871c.828 2.42.738 5.054-.254 7.414Z"/><path fill="#B0C5D9" d="M159.584 177.718a7.834 7.834 0 0 0-.955.964 8.266 8.266 0 0 0-1.778-1.249 9.15 9.15 0 0 1 .782-1.275c.052.13.147.239.271.307a9.403 9.403 0 0 1 1.68 1.253Z"/><path fill="#D1DEF0" d="M169.929 173.272a.358.358 0 0 0-.393.033.347.347 0 0 0-.087.107 8.98 8.98 0 0 0-.382 6.835 9.146 9.146 0 0 0 4.368 5.324c.042.02.087.032.134.035a.336.336 0 0 0 .137-.02.342.342 0 0 0 .2-.182 9.358 9.358 0 0 0 .39-6.824 9.5 9.5 0 0 0-4.367-5.308Z"/><path fill="#EDF4FB" d="M174.701 180.33a9.832 9.832 0 0 0-2.532-2.903 10.014 10.014 0 0 0-3.466-1.724c.13-.797.384-1.57.751-2.291a.334.334 0 0 1 .209-.171.348.348 0 0 1 .271.031 9.467 9.467 0 0 1 4.363 5.306c.193.569.329 1.156.404 1.752Z"/><path fill="#D1DEF0" d="M168.012 173.246a.667.667 0 0 0-.185-.79.69.69 0 0 0-.259-.134 9.695 9.695 0 0 0-5.384.145 9.575 9.575 0 0 0-4.453 2.988.656.656 0 0 0-.148.546.675.675 0 0 0 .325.466 10.537 10.537 0 0 1 4.613 5.867 10.41 10.41 0 0 1-.258 7.422.668.668 0 0 0 .009.562.692.692 0 0 0 .435.363 9.7 9.7 0 0 0 5.375-.151 9.585 9.585 0 0 0 4.445-2.982.661.661 0 0 0 .038-.816.666.666 0 0 0-.216-.196 10.595 10.595 0 0 1-4.594-5.867 10.413 10.413 0 0 1 .257-7.423Z"/><path fill="#EDF4FB" d="M168.022 173.246a9.392 9.392 0 0 0-.657 2.191 9.932 9.932 0 0 0-7.763 2.279 10.079 10.079 0 0 0-1.684-1.254.676.676 0 0 1-.326-.466.672.672 0 0 1 .153-.546 9.506 9.506 0 0 1 4.443-2.984 9.753 9.753 0 0 1 5.377-.149.692.692 0 0 1 .45.359.652.652 0 0 1 .007.57Z"/><path fill="#D1DEF0" d="M156.843 177.431a.35.35 0 0 0-.271-.014.35.35 0 0 0-.2.18 9.356 9.356 0 0 0-.381 6.829 9.508 9.508 0 0 0 4.38 5.304.354.354 0 0 0 .27.031.343.343 0 0 0 .21-.171 9.002 9.002 0 0 0 .386-6.836 9.162 9.162 0 0 0-4.394-5.323Z"/><path fill="#EDF4FB" d="M158.625 178.668a9.602 9.602 0 0 0-2.461 6.231c-.062-.158-.116-.32-.173-.482a9.283 9.283 0 0 1 .391-6.822.322.322 0 0 1 .081-.113.346.346 0 0 1 .394-.049c.645.329 1.24.745 1.768 1.235Z"/><path fill="#D9E3F5" d="M126.834 90.312a.583.583 0 0 1-.163-1.076c7.3-4.186 10.173-9.544 11.299-13.303 1.222-4.08.712-7.222.706-7.251a.586.586 0 0 1 .475-.674.586.586 0 0 1 .674.476c.023.137.563 3.395-.72 7.726-1.179 3.981-4.192 9.645-11.854 14.038a.588.588 0 0 1-.417.064Zm-8.133 6.432s-.546 1.971-2.019 2.173c-1.473.2-3.027-4.25-6.728-1.164-4.343 3.625-4.23 3.675-5.755 3.774-1.164.073 2.911 4.436 8.68 3.381 3.22-.87 4.457-3.066 4.165-4.425a.598.598 0 0 1 .198-.583c.537-.455 1.628-1.427 2.025-2.133a.607.607 0 0 0-.196-.787l-.37-.236Z"/></g><defs><linearGradient id="b" x1="109.598" x2="109.598" y1="55.94" y2="220.486" gradientUnits="userSpaceOnUse"><stop offset="0" stop-color="#F5F5F5"/><stop offset="1" stop-color="#EAEDF0"/></linearGradient><linearGradient id="c" x1="124.868" x2="155.466" y1="186.286" y2="133.288" gradientUnits="userSpaceOnUse"><stop offset=".075" stop-color="#B4C9DB"/><stop offset="1" stop-color="#EDF1F9"/></linearGradient><linearGradient id="d" x1="66.143" x2="76.221" y1="199.072" y2="181.616" gradientUnits="userSpaceOnUse"><stop offset=".075" stop-color="#B4C9DB"/><stop offset="1" stop-color="#EDF1F9"/></linearGradient><linearGradient id="e" x1="25.2" x2="25.2" y1="168.91" y2="128.276" gradientUnits="userSpaceOnUse"><stop offset=".227" stop-color="#D0DCEB"/><stop offset=".789" stop-color="#ECF1FB"/></linearGradient><linearGradient id="f" x1="25.201" x2="25.201" y1="132.786" y2="177.554" gradientUnits="userSpaceOnUse"><stop stop-color="#ECF1FB"/><stop offset=".818" stop-color="#B6C9DD"/></linearGradient><linearGradient id="g" x1="173.647" x2="173.647" y1="141.803" y2="115.639" gradientUnits="userSpaceOnUse"><stop offset=".227" stop-color="#D0DCEB"/><stop offset=".789" stop-color="#ECF1FB"/></linearGradient><linearGradient id="h" x1="173.649" x2="173.649" y1="118.545" y2="147.371" gradientUnits="userSpaceOnUse"><stop stop-color="#ECF1FB"/><stop offset=".818" stop-color="#B6C9DD"/></linearGradient><linearGradient id="i" x1="190.443" x2="190.443" y1="170.104" y2="159.934" gradientUnits="userSpaceOnUse"><stop offset=".227" stop-color="#D0DCEB"/><stop offset=".789" stop-color="#ECF1FB"/></linearGradient><linearGradient id="j" x1="190.462" x2="190.462" y1="161.22" y2="177.59" gradientUnits="userSpaceOnUse"><stop stop-color="#ECF1FB"/><stop offset=".818" stop-color="#B6C9DD"/></linearGradient><linearGradient id="k" x1="127.667" x2="127.667" y1="47" y2="66" gradientUnits="userSpaceOnUse"><stop stop-color="#F0F1F3"/><stop offset="1" stop-color="#EBF0F8"/></linearGradient><linearGradient id="l" x1="79.85" x2="125.99" y1="180.042" y2="99.333" gradientUnits="userSpaceOnUse"><stop offset=".15" stop-color="#B6CADC"/><stop offset="1" stop-color="#DFE8F9"/></linearGradient><linearGradient id="m" x1="123.462" x2="123.462" y1="189.332" y2="129.01" gradientUnits="userSpaceOnUse"><stop offset=".15" stop-color="#B6CADC"/><stop offset="1" stop-color="#DFE8F9"/></linearGradient><radialGradient id="o" cx="0" cy="0" r="1" gradientTransform="matrix(18.6008 0 0 527.165 55.197 195.254)" gradientUnits="userSpaceOnUse"><stop offset=".543" stop-color="#D0DCEB"/><stop offset="1" stop-color="#ECF1FB" stop-opacity="0"/></radialGradient><radialGradient id="p" cx="0" cy="0" r="1" gradientTransform="matrix(10.3987 0 0 378.511 87.349 196.905)" gradientUnits="userSpaceOnUse"><stop offset=".543" stop-color="#D0DCEB"/><stop offset="1" stop-color="#ECF1FB" stop-opacity="0"/></radialGradient><radialGradient id="q" cx="0" cy="0" r="1" gradientTransform="matrix(7.90456 0 0 109.872 165.139 190.988)" gradientUnits="userSpaceOnUse"><stop offset=".543" stop-color="#D0DCEB"/><stop offset="1" stop-color="#ECF1FB" stop-opacity="0"/></radialGradient><clipPath id="a"><path fill="#fff" d="M0 0h220v220H0z"/></clipPath><clipPath id="n"><path fill="#fff" d="M35.987 158.543h37.916v40.286H35.987z"/></clipPath></defs></svg>