<svg xmlns="http://www.w3.org/2000/svg" width="16" height="20" fill="none" viewBox="0 0 16 20"><path fill="#ADB2BD" d="M10.4 9.2H5.6A5.607 5.607 0 0 0 0 14.8v2.401c0 1.324 1.076 2.4 2.4 2.4h11.2c1.324 0 2.4-1.076 2.4-2.4v-2.4a5.607 5.607 0 0 0-5.6-5.602Zm4 8c0 .44-.359.8-.8.8H2.4c-.441 0-.8-.36-.8-.8v-2.4c0-2.204 1.795-4 4-4h4.8c2.205 0 4 1.796 4 4v2.4ZM8 8.4a4 4 0 1 0 0-8 4 4 0 0 0 0 8ZM8 2c1.324 0 2.4 1.076 2.4 2.4 0 1.325-1.076 2.4-2.4 2.4a2.404 2.404 0 0 1-2.4-2.4C5.6 3.078 6.676 2 8 2Z"/></svg>