<svg xmlns="http://www.w3.org/2000/svg" width="25" height="25" fill="none" viewBox="0 0 25 25"><rect width="25" height="25" x="-6.10352e-05" fill="#DB4341" rx="12.5"/><path fill="#D8D8D8" d="M7.25 8h10v10h-10z" opacity="0.01"/><mask id="a" width="13" height="11" x="6.24994" y="7" fill="#000" maskUnits="userSpaceOnUse"><path fill="#fff" d="M6.25 7h13v11h-13z"/><path fill-rule="evenodd" d="M7.25 9.25C7.25 8.56 7.81 8 8.5 8h8c.69 0 1.25.56 1.25 1.25v6.5c0 .69-.56 1.25-1.25 1.25h-8c-.69 0-1.25-.56-1.25-1.25v-6.5Z" clip-rule="evenodd"/></mask><path fill="#fff" d="M16.5 8v-.8.8Zm-8 0v.8V8Zm0 .8h8V7.2h-8v1.6Zm8.45.45v6.5h1.6v-6.5h-1.6Zm-.45 6.95h-8v1.6h8v-1.6Zm-8.45-.45v-6.5h-1.6v6.5h1.6Zm.45.45a.45.45 0 0 1-.45-.45h-1.6A2.05 2.05 0 0 0 8.5 17.8v-1.6Zm8.45-.45a.45.45 0 0 1-.45.45v1.6a2.05 2.05 0 0 0 2.05-2.05h-1.6ZM16.5 8.8a.45.45 0 0 1 .45.45h1.6A2.05 2.05 0 0 0 16.5 7.2v1.6Zm-8-1.6a2.05 2.05 0 0 0-2.05 2.05h1.6a.45.45 0 0 1 .45-.45V7.2Z" mask="url(#a)"/><path fill="#fff" stroke="#fff" stroke-width="0.02" d="M9.04 5.298a.36.36 0 1 0-.623.36l1.158 2.007a.382.382 0 0 0 .244.182l.07.017a.385.385 0 0 0 .283-.04l.236-.137-.005-.009.008-.005L9.04 5.298Z"/><path fill="#fff" d="M14.528 11.761a.8.8 0 0 1 .008 1.41l-2.735 1.487a.8.8 0 0 1-1.182-.703v-2.929a.8.8 0 0 1 1.174-.707l2.735 1.442Z"/><path fill="#fff" stroke="#fff" stroke-width="0.02" d="M16.066 5.298a.36.36 0 1 1 .624.36l-1.167 2.02a.385.385 0 0 1-.246.183l-.049.012a.385.385 0 0 1-.28-.042l-.25-.144.006-.009-.009-.005 1.371-2.375Z"/></svg>