<svg xmlns="http://www.w3.org/2000/svg" width="281" height="40" fill="none" viewBox="0 0 281 40"><g filter="url(#a)"><path fill="#4B6CDB" d="M0 0h280.435s-13.51 0-19.1 13.023c-3.067 7.147-9.081 14.574-13.884 19.822-4.376 4.782-10.67 7.155-17.152 7.155H50.716c-6.551 0-12.904-2.426-17.302-7.28-4.747-5.24-10.679-12.607-13.849-19.697C13.742 0 0 0 0 0Z"/></g><path stroke="url(#b)" stroke-width="0.6" d="M4.335.3h271.843a23.92 23.92 0 0 0-3.308 1.05c-4.131 1.65-8.977 4.954-11.81 11.555-3.047 7.098-9.032 14.494-13.83 19.737-4.312 4.711-10.52 7.058-16.931 7.058H50.716c-6.48 0-12.747-2.399-17.08-7.182-4.742-5.235-10.647-12.572-13.797-19.617-2.951-6.6-7.914-9.904-12.13-11.552A25.017 25.017 0 0 0 4.334.3Z"/><defs><linearGradient id="b" x1="140.217" x2="140.217" y1="3.02326" y2="40" gradientUnits="userSpaceOnUse"><stop stop-color="#fff" stop-opacity="0"/><stop offset="1" stop-color="#EDF2FF"/></linearGradient><filter id="a" width="280.435" height="41" x="0" y="-1" color-interpolation-filters="sRGB" filterUnits="userSpaceOnUse"><feFlood flood-opacity="0" result="BackgroundImageFix"/><feBlend in="SourceGraphic" in2="BackgroundImageFix" result="shape"/><feColorMatrix in="SourceAlpha" result="hardAlpha" values="0 0 0 0 0 0 0 0 0 0 0 0 0 0 0 0 0 0 127 0"/><feOffset dy="-1"/><feGaussianBlur stdDeviation="1"/><feComposite in2="hardAlpha" k2="-1" k3="1" operator="arithmetic"/><feColorMatrix values="0 0 0 0 0.0206937 0 0 0 0 0.00802083 0 0 0 0 0.641667 0 0 0 0.4 0"/><feBlend in2="shape" result="effect1_innerShadow_4583_19605"/></filter></defs></svg>