<svg xmlns="http://www.w3.org/2000/svg" fill="none" viewBox="0 0 24 24"><path fill="#fff" fill-opacity="0.01" d="M0 0h24v24H0z"/><path stroke="#fff" stroke-width="1.8" d="m1.96 3.07.002-.001c.483-.568 1.09-.844 1.7-.844h16.677c.603 0 1.197.267 1.677.818l.134.186.006.009c.418.566.655 1.292.655 2.051v13.559a3.48 3.48 0 0 1-.654 2.05c-.499.675-1.17 1.008-1.818 1.008H3.66c-1.232 0-2.472-1.234-2.472-3.062V5.286c0-.848.295-1.658.772-2.216Zm-.436 4.934h20.962"/><path stroke="#fff" stroke-linecap="round" stroke-width="1.8" d="M4.518 15.426h6.806"/></svg>