<svg width="28" height="28" fill="none" xmlns="http://www.w3.org/2000/svg"><g clip-path="url(#a)"><g filter="url(#b)"><ellipse cx="14" cy="14.5" rx="13" ry="13.5" fill="url(#c)"/></g><circle cx="14" cy="13" r="12.875" fill="url(#d)" stroke="url(#e)" stroke-width=".25"/><mask id="h" style="mask-type:alpha" maskUnits="userSpaceOnUse" x="1" y="0" width="27" height="27"><circle cx="14.24" cy="13.2" r="13.075" fill="url(#f)" stroke="url(#g)" stroke-width=".25"/></mask><g mask="url(#h)"><g opacity=".56" filter="url(#i)"><ellipse cx="14.734" cy="19.816" rx="10.459" ry="7.706" fill="url(#j)"/></g><g opacity=".61" filter="url(#k)"><ellipse cx="14.756" cy="17.063" rx="11.559" ry="8.257" fill="url(#l)"/></g><g filter="url(#m)"><circle cx="14.24" cy="13.2" r="12.7" stroke="url(#n)"/></g><circle cx="14.24" cy="13.2" r="13.075" stroke="url(#o)" stroke-width=".25"/></g><g filter="url(#p)"><path fill-rule="evenodd" clip-rule="evenodd" d="M14.5 7A1.5 1.5 0 0 0 13 8.5v4H9a1.5 1.5 0 0 0 0 3h4v4a1.5 1.5 0 0 0 3 0v-4h4a1.5 1.5 0 0 0 0-3h-4v-4A1.5 1.5 0 0 0 14.5 7Z" fill="#425EB9"/></g><g filter="url(#q)"><path fill-rule="evenodd" clip-rule="evenodd" d="M14.5 6A1.5 1.5 0 0 0 13 7.5v4H9a1.5 1.5 0 0 0 0 3h4v4a1.5 1.5 0 0 0 3 0v-4h4a1.5 1.5 0 0 0 0-3h-4v-4A1.5 1.5 0 0 0 14.5 6Z" fill="#fff"/></g></g><defs><linearGradient id="c" x1="27" y1="28" x2="1" y2="28" gradientUnits="userSpaceOnUse"><stop stop-color="#F4F6FA"/><stop offset=".083" stop-color="#C3C7D2"/><stop offset=".217" stop-color="#F4F6FA"/><stop offset=".759" stop-color="#F4F6FA"/><stop offset=".875" stop-color="#C3C7D2"/><stop offset="1" stop-color="#F4F6FA"/></linearGradient><linearGradient id="d" x1="14.271" y1="26" x2="14.271" y2="0" gradientUnits="userSpaceOnUse"><stop stop-color="#4B65DC"/><stop offset=".229" stop-color="#5C79ED"/><stop offset="1" stop-color="#B8EAFF"/></linearGradient><linearGradient id="e" x1="1" y1="26" x2="1" y2="0" gradientUnits="userSpaceOnUse"><stop stop-color="#fff"/><stop offset="1" stop-color="#EBF7FF"/></linearGradient><linearGradient id="f" x1="14.515" y1="26.4" x2="14.515" y2="0" gradientUnits="userSpaceOnUse"><stop stop-color="#4B65DC"/><stop offset=".229" stop-color="#5C79ED"/><stop offset="1" stop-color="#B8EAFF"/></linearGradient><linearGradient id="g" x1="1.04" y1="26.4" x2="1.04" y2="0" gradientUnits="userSpaceOnUse"><stop stop-color="#fff"/><stop offset="1" stop-color="#EBF7FF"/></linearGradient><linearGradient id="j" x1="4.275" y1="19.816" x2="25.192" y2="19.816" gradientUnits="userSpaceOnUse"><stop stop-color="#334ABF"/><stop offset="1" stop-color="#495FCE"/></linearGradient><linearGradient id="l" x1="14.997" y1="25.32" x2="14.997" y2="8.807" gradientUnits="userSpaceOnUse"><stop stop-color="#3C55D7"/><stop offset="1" stop-color="#5880E8"/></linearGradient><linearGradient id="n" x1="1.04" y1="26.4" x2="1.04" y2="0" gradientUnits="userSpaceOnUse"><stop stop-color="#00D1FF"/><stop offset="1" stop-color="#BCE8FF"/></linearGradient><linearGradient id="o" x1="1.04" y1="26.4" x2="1.04" y2="0" gradientUnits="userSpaceOnUse"><stop stop-color="#fff"/><stop offset="1" stop-color="#EBF7FF"/></linearGradient><filter id="b" x="-1" y="0" width="30" height="31" filterUnits="userSpaceOnUse" color-interpolation-filters="sRGB"><feFlood flood-opacity="0" result="BackgroundImageFix"/><feColorMatrix in="SourceAlpha" values="0 0 0 0 0 0 0 0 0 0 0 0 0 0 0 0 0 0 127 0" result="hardAlpha"/><feOffset dy="1"/><feGaussianBlur stdDeviation="1"/><feComposite in2="hardAlpha" operator="out"/><feColorMatrix values="0 0 0 0 0.210694 0 0 0 0 0.343033 0 0 0 0 0.683333 0 0 0 0.15 0"/><feBlend in2="BackgroundImageFix" result="effect1_dropShadow_691_20227"/><feBlend in="SourceGraphic" in2="effect1_dropShadow_691_20227" result="shape"/></filter><filter id="i" x="-1.725" y="6.109" width="32.917" height="27.412" filterUnits="userSpaceOnUse" color-interpolation-filters="sRGB"><feFlood flood-opacity="0" result="BackgroundImageFix"/><feBlend in="SourceGraphic" in2="BackgroundImageFix" result="shape"/><feGaussianBlur stdDeviation="3" result="effect1_foregroundBlur_691_20227"/></filter><filter id="k" x="-8.803" y="-3.193" width="47.119" height="40.514" filterUnits="userSpaceOnUse" color-interpolation-filters="sRGB"><feFlood flood-opacity="0" result="BackgroundImageFix"/><feBlend in="SourceGraphic" in2="BackgroundImageFix" result="shape"/><feGaussianBlur stdDeviation="6" result="effect1_foregroundBlur_691_20227"/></filter><filter id="m" x="-6.96" y="-8" width="42.4" height="42.4" filterUnits="userSpaceOnUse" color-interpolation-filters="sRGB"><feFlood flood-opacity="0" result="BackgroundImageFix"/><feBlend in="SourceGraphic" in2="BackgroundImageFix" result="shape"/><feGaussianBlur stdDeviation="4" result="effect1_foregroundBlur_691_20227"/></filter><filter id="p" x="5.5" y="5" width="18" height="18" filterUnits="userSpaceOnUse" color-interpolation-filters="sRGB"><feFlood flood-opacity="0" result="BackgroundImageFix"/><feBlend in="SourceGraphic" in2="BackgroundImageFix" result="shape"/><feGaussianBlur stdDeviation="1" result="effect1_foregroundBlur_691_20227"/></filter><filter id="q" x="7.5" y="6" width="14" height="18" filterUnits="userSpaceOnUse" color-interpolation-filters="sRGB"><feFlood flood-opacity="0" result="BackgroundImageFix"/><feBlend in="SourceGraphic" in2="BackgroundImageFix" result="shape"/><feColorMatrix in="SourceAlpha" values="0 0 0 0 0 0 0 0 0 0 0 0 0 0 0 0 0 0 127 0" result="hardAlpha"/><feOffset dy="4"/><feGaussianBlur stdDeviation="2"/><feComposite in2="hardAlpha" operator="arithmetic" k2="-1" k3="1"/><feColorMatrix values="0 0 0 0 0.858333 0 0 0 0 0.9235 0 0 0 0 1 0 0 0 0.25 0"/><feBlend in2="shape" result="effect1_innerShadow_691_20227"/></filter><clipPath id="a"><path fill="#fff" d="M0 0h28v28H0z"/></clipPath></defs></svg>