<svg xmlns="http://www.w3.org/2000/svg" width="15" height="14" fill="none" viewBox="0 0 15 14"><path fill="url(#a)" d="m0 4 8.236-2.196C11.65.894 15 3.467 15 7c0 3.534-3.35 6.107-6.764 5.196L0 10V4Z"/><path fill="#fff" d="m6.3 8.662.016-.06c.064-.262.254-.35.474-.33.05.004.1.028.147.05.254.122.504.25.76.367.118.053.152.034.2-.088.068-.172.132-.346.19-.522.06-.18.11-.363.167-.543.085-.272.177-.54.256-.814.039-.135.059-.276.079-.416.013-.093-.043-.128-.126-.088-.077.038-.12.11-.164.18-.18.292-.36.585-.544.874-.054.085-.115.17-.189.238-.144.133-.335.128-.49.001a.387.387 0 0 1-.094-.48c.25-.463.502-.925.825-1.342.183-.237.424-.358.699-.427.297-.074.598-.097.902-.083.441.021.799.216 1.092.548.099.112.197.225.288.344.062.08.138.093.222.073.232-.055.462-.12.694-.173a.977.977 0 0 1 .277-.032c.17.01.262.126.305.288l.014.05v.128c-.06.2-.207.293-.39.337-.386.091-.775.172-1.159.27a.386.386 0 0 1-.39-.093c-.102-.095-.197-.199-.295-.298-.029-.029-.06-.056-.097-.091l-.36 1.028c.233.032.444.099.652.18.119.045.234.103.349.16a.202.202 0 0 1 .112.144 145.313 145.313 0 0 0 .462 1.965.337.337 0 0 1-.126.366.672.672 0 0 1-.448.125.288.288 0 0 1-.268-.204c-.014-.038-.02-.079-.03-.118-.12-.46-.242-.92-.36-1.38a.151.151 0 0 0-.105-.116 2.511 2.511 0 0 0-.645-.134c-.089-.008-.152.025-.191.11l-.254.545c-.086.183-.17.368-.297.528-.068.087-.152.14-.264.125-.069-.01-.139-.016-.205-.034-.336-.09-.642-.252-.946-.418-.123-.067-.239-.152-.367-.206-.184-.077-.33-.183-.378-.393v-.14Zm3.611-3.613a.756.756 0 0 1-.746-.752c-.002-.45.331-.798.764-.797.412.001.749.35.749.776a.77.77 0 0 1-.767.773Z"/><path fill="#fff" d="M12.046 10.049a.756.756 0 0 1-.746-.752c-.002-.45.33-.798.764-.797.412.001.748.35.749.776a.77.77 0 0 1-.767.773ZM6.3 3.996l1.768-.214a.22.22 0 1 1-.001.435L6.3 3.997Zm-1 1 1.768-.214a.22.22 0 1 1-.001.435L5.3 4.997Z"/><defs><linearGradient id="a" x1="3.79658" x2="3.79663" y1="-4.2" y2="19.6" gradientUnits="userSpaceOnUse"><stop stop-color="#7E9AFF"/><stop offset="1" stop-color="#3074F7"/></linearGradient></defs></svg>